# Blender v2.93.18 OBJ File: ''
# www.blender.org
o Sphere_Sphere.001
v 0.000000 0.951057 -0.309017
v 0.000000 0.309017 -0.951057
v 0.000000 -0.000000 -1.000000
v 0.000000 -0.309017 -0.951056
v 0.000000 -0.809017 -0.587785
v 0.000000 -0.951056 -0.309017
v 0.118256 0.951057 -0.285494
v 0.224936 0.809017 -0.543043
v 0.309597 0.587785 -0.747434
v 0.363954 0.309017 -0.878662
v 0.382683 -0.000000 -0.923880
v 0.363954 -0.309017 -0.878662
v 0.309597 -0.587785 -0.747434
v 0.224936 -0.809017 -0.543043
v 0.118256 -0.951056 -0.285495
v 0.000000 -1.000000 0.000000
v 0.218508 0.951057 -0.218508
v 0.415627 0.809017 -0.415627
v 0.572061 0.587785 -0.572061
v 0.672499 0.309017 -0.672498
v 0.707107 -0.000000 -0.707107
v 0.672499 -0.309017 -0.672498
v 0.572061 -0.587785 -0.572061
v 0.415627 -0.809017 -0.415627
v 0.218508 -0.951056 -0.218508
v 0.285495 0.951057 -0.118256
v 0.543043 0.809017 -0.224936
v 0.747434 0.587785 -0.309597
v 0.878662 0.309017 -0.363953
v 0.923880 -0.000000 -0.382683
v 0.878662 -0.309017 -0.363953
v 0.747434 -0.587785 -0.309597
v 0.543043 -0.809017 -0.224936
v 0.285495 -0.951056 -0.118256
v 0.309017 0.951057 0.000000
v 0.587785 0.809017 0.000000
v 0.809017 0.587785 0.000000
v 0.951057 0.309017 0.000000
v 1.000000 -0.000000 0.000000
v 0.951057 -0.309017 0.000000
v 0.809017 -0.587785 0.000000
v 0.587785 -0.809017 0.000000
v 0.309017 -0.951056 0.000000
v 0.285495 0.951057 0.118256
v 0.543043 0.809017 0.224936
v 0.747434 0.587785 0.309598
v 0.878662 0.309017 0.363954
v 0.923879 -0.000000 0.382684
v 0.878662 -0.309017 0.363954
v 0.747434 -0.587785 0.309598
v 0.543043 -0.809017 0.224936
v 0.285495 -0.951056 0.118256
v 0.218508 0.951057 0.218508
v 0.415627 0.809017 0.415627
v 0.572061 0.587785 0.572062
v 0.672498 0.309017 0.672499
v 0.707107 -0.000000 0.707107
v 0.672498 -0.309017 0.672499
v 0.572061 -0.587785 0.572062
v 0.415627 -0.809017 0.415627
v 0.218508 -0.951056 0.218508
v 0.118256 0.951057 0.285495
v 0.224936 0.809017 0.543043
v 0.309597 0.587785 0.747434
v 0.363953 0.309017 0.878662
v 0.382683 -0.000000 0.923880
v 0.363953 -0.309017 0.878662
v 0.309597 -0.587785 0.747434
v 0.224936 -0.809017 0.543043
v 0.118256 -0.951056 0.285495
v -0.000000 0.951057 0.309017
v -0.000000 0.809017 0.587785
v -0.000000 0.587785 0.809017
v -0.000000 0.309017 0.951057
v -0.000000 -0.000000 1.000000
v -0.000000 -0.309017 0.951057
v -0.000000 -0.587785 0.809017
v -0.000000 -0.809017 0.587785
v -0.000000 -0.951056 0.309017
v -0.118256 0.951057 0.285495
v -0.224936 0.809017 0.543043
v -0.309598 0.587785 0.747434
v -0.363954 0.309017 0.878662
v -0.382684 -0.000000 0.923880
v -0.363954 -0.309017 0.878662
v -0.309598 -0.587785 0.747434
v -0.224936 -0.809017 0.543043
v -0.118256 -0.951056 0.285495
v -0.218508 0.951057 0.218508
v -0.415627 0.809017 0.415627
v -0.572062 0.587785 0.572061
v -0.672499 0.309017 0.672498
v -0.707107 -0.000000 0.707107
v -0.672499 -0.309017 0.672498
v -0.572062 -0.587785 0.572061
v -0.415627 -0.809017 0.415627
v -0.218508 -0.951056 0.218508
v -0.000000 1.000000 0.000000
v -0.285495 0.951057 0.118256
v -0.543043 0.809017 0.224936
v -0.747434 0.587785 0.309597
v -0.878662 0.309017 0.363953
v -0.923880 -0.000000 0.382683
v -0.878662 -0.309017 0.363953
v -0.747434 -0.587785 0.309597
v -0.543043 -0.809017 0.224936
v -0.285495 -0.951056 0.118256
v -0.309017 0.951057 -0.000000
v -0.587785 0.809017 -0.000000
v -0.809017 0.587785 -0.000000
v -0.951056 0.309017 -0.000000
v -1.000000 -0.000000 -0.000000
v -0.951056 -0.309017 -0.000000
v -0.809017 -0.587785 -0.000000
v -0.587785 -0.809017 -0.000000
v -0.309017 -0.951056 -0.000000
v -0.285494 0.951057 -0.118256
v -0.543042 0.809017 -0.224936
v -0.747434 0.587785 -0.309598
v -0.878661 0.309017 -0.363954
v -0.923879 -0.000000 -0.382684
v -0.878661 -0.309017 -0.363954
v -0.747434 -0.587785 -0.309598
v -0.543042 -0.809017 -0.224936
v -0.285494 -0.951056 -0.118256
v -0.218508 0.951057 -0.218508
v -0.415627 0.809017 -0.415627
v -0.572061 0.587785 -0.572061
v -0.672498 0.309017 -0.672499
v -0.707106 -0.000000 -0.707107
v -0.672498 -0.309017 -0.672499
v -0.572061 -0.587785 -0.572061
v -0.415627 -0.809017 -0.415627
v -0.218508 -0.951056 -0.218508
v -0.118256 0.951057 -0.285495
v -0.224935 0.809017 -0.543043
v -0.309597 0.587785 -0.747434
v -0.363953 0.309017 -0.878662
v -0.382683 -0.000000 -0.923880
v -0.363953 -0.309017 -0.878662
v -0.309597 -0.587785 -0.747434
v -0.224935 -0.809017 -0.543043
v -0.118256 -0.951056 -0.285494
v 0.000000 0.809017 -0.587785
v 0.000000 0.587785 -0.809017
v 0.000000 -0.587785 -0.809017
s off
f 1 98 7
f 146 14 5
f 2 11 3
f 144 7 8
f 6 14 15
f 3 12 4
f 145 8 9
f 16 6 15
f 146 12 13
f 145 10 2
f 13 24 14
f 11 20 21
f 8 17 18
f 14 25 15
f 11 22 12
f 8 19 9
f 16 15 25
f 12 23 13
f 10 19 20
f 7 98 17
f 19 29 20
f 17 98 26
f 23 33 24
f 20 30 21
f 17 27 18
f 24 34 25
f 21 31 22
f 19 27 28
f 16 25 34
f 22 32 23
f 31 41 32
f 28 38 29
f 26 98 35
f 32 42 33
f 29 39 30
f 26 36 27
f 33 43 34
f 31 39 40
f 28 36 37
f 16 34 43
f 36 46 37
f 16 43 52
f 40 50 41
f 38 46 47
f 35 98 44
f 41 51 42
f 38 48 39
f 36 44 45
f 42 52 43
f 39 49 40
f 51 61 52
f 48 58 49
f 45 55 46
f 16 52 61
f 49 59 50
f 47 55 56
f 44 98 53
f 50 60 51
f 47 57 48
f 44 54 45
f 56 66 57
f 53 63 54
f 60 70 61
f 57 67 58
f 54 64 55
f 16 61 70
f 58 68 59
f 56 64 65
f 53 98 62
f 59 69 60
f 62 98 71
f 68 78 69
f 65 75 66
f 62 72 63
f 69 79 70
f 66 76 67
f 63 73 64
f 16 70 79
f 67 77 68
f 65 73 74
f 73 83 74
f 71 98 80
f 77 87 78
f 75 83 84
f 72 80 81
f 78 88 79
f 75 85 76
f 72 82 73
f 16 79 88
f 76 86 77
f 16 88 97
f 85 95 86
f 82 92 83
f 80 98 89
f 86 96 87
f 84 92 93
f 81 89 90
f 88 96 97
f 84 94 85
f 81 91 82
f 93 104 94
f 90 101 91
f 16 97 107
f 94 105 95
f 91 102 92
f 89 98 99
f 95 106 96
f 92 103 93
f 89 100 90
f 96 107 97
f 99 109 100
f 107 115 116
f 103 113 104
f 100 110 101
f 16 107 116
f 104 114 105
f 101 111 102
f 99 98 108
f 106 114 115
f 103 111 112
f 111 121 112
f 109 117 118
f 115 125 116
f 112 122 113
f 109 119 110
f 16 116 125
f 113 123 114
f 110 120 111
f 108 98 117
f 115 123 124
f 117 98 126
f 124 132 133
f 121 129 130
f 118 126 127
f 124 134 125
f 121 131 122
f 118 128 119
f 16 125 134
f 123 131 132
f 119 129 120
f 131 141 132
f 128 138 129
f 126 98 135
f 132 142 133
f 130 138 139
f 127 135 136
f 133 143 134
f 130 140 131
f 127 137 128
f 16 134 143
f 136 145 137
f 16 143 6
f 141 4 146
f 137 2 138
f 135 98 1
f 141 5 142
f 138 3 139
f 136 1 144
f 142 6 143
f 139 4 140
f 146 13 14
f 2 10 11
f 144 1 7
f 6 5 14
f 3 11 12
f 145 144 8
f 146 4 12
f 145 9 10
f 13 23 24
f 11 10 20
f 8 7 17
f 14 24 25
f 11 21 22
f 8 18 19
f 12 22 23
f 10 9 19
f 19 28 29
f 23 32 33
f 20 29 30
f 17 26 27
f 24 33 34
f 21 30 31
f 19 18 27
f 22 31 32
f 31 40 41
f 28 37 38
f 32 41 42
f 29 38 39
f 26 35 36
f 33 42 43
f 31 30 39
f 28 27 36
f 36 45 46
f 40 49 50
f 38 37 46
f 41 50 51
f 38 47 48
f 36 35 44
f 42 51 52
f 39 48 49
f 51 60 61
f 48 57 58
f 45 54 55
f 49 58 59
f 47 46 55
f 50 59 60
f 47 56 57
f 44 53 54
f 56 65 66
f 53 62 63
f 60 69 70
f 57 66 67
f 54 63 64
f 58 67 68
f 56 55 64
f 59 68 69
f 68 77 78
f 65 74 75
f 62 71 72
f 69 78 79
f 66 75 76
f 63 72 73
f 67 76 77
f 65 64 73
f 73 82 83
f 77 86 87
f 75 74 83
f 72 71 80
f 78 87 88
f 75 84 85
f 72 81 82
f 76 85 86
f 85 94 95
f 82 91 92
f 86 95 96
f 84 83 92
f 81 80 89
f 88 87 96
f 84 93 94
f 81 90 91
f 93 103 104
f 90 100 101
f 94 104 105
f 91 101 102
f 95 105 106
f 92 102 103
f 89 99 100
f 96 106 107
f 99 108 109
f 107 106 115
f 103 112 113
f 100 109 110
f 104 113 114
f 101 110 111
f 106 105 114
f 103 102 111
f 111 120 121
f 109 108 117
f 115 124 125
f 112 121 122
f 109 118 119
f 113 122 123
f 110 119 120
f 115 114 123
f 124 123 132
f 121 120 129
f 118 117 126
f 124 133 134
f 121 130 131
f 118 127 128
f 123 122 131
f 119 128 129
f 131 140 141
f 128 137 138
f 132 141 142
f 130 129 138
f 127 126 135
f 133 142 143
f 130 139 140
f 127 136 137
f 136 144 145
f 141 140 4
f 137 145 2
f 141 146 5
f 138 2 3
f 136 135 1
f 142 5 6
f 139 3 4
