# Blender v2.93.18 OBJ File: 'banana.blend'
# www.blender.org
o Cylinder
v -0.961228 0.000000 -0.877731
v 1.045820 -0.000000 -0.824392
v -1.034013 -0.327912 -0.810918
v 1.121835 -0.306186 -0.761639
v -1.095717 -0.605903 -0.620650
v 1.186278 -0.565759 -0.582933
v -1.136947 -0.791650 -0.335893
v 1.229337 -0.739199 -0.315481
v -1.151425 -0.856876 0.000000
v 1.244457 -0.800104 0.000000
v -1.136947 -0.791651 0.335893
v 1.229337 -0.739199 0.315481
v -1.095717 -0.605903 0.620650
v 1.186278 -0.565759 0.582933
v -1.034013 -0.327912 0.810918
v 1.121835 -0.306186 0.761639
v -0.961228 0.000000 0.877731
v 1.045820 0.000000 0.824392
v -0.888443 0.327912 0.810918
v 0.969806 0.306186 0.761639
v -0.826739 0.605903 0.620650
v 0.905363 0.565759 0.582933
v -0.785510 0.791650 0.335893
v 0.862304 0.739199 0.315481
v -0.771032 0.856876 -0.000000
v 0.847184 0.800104 -0.000000
v -0.785510 0.791650 -0.335893
v 0.862304 0.739199 -0.315481
v -0.826739 0.605903 -0.620649
v 0.905363 0.565759 -0.582933
v -0.888443 0.327912 -0.810918
v 0.969806 0.306186 -0.761639
v -2.422412 0.240244 -0.735638
v -2.559400 0.001389 -0.648381
v -2.671201 -0.189263 -0.462414
v -2.740794 -0.302687 -0.206049
v -2.757586 -0.321613 0.081685
v -2.719018 -0.243162 0.356984
v -2.630964 -0.079277 0.577935
v -2.506828 0.145092 0.710901
v -2.365509 0.395788 0.735638
v -2.228522 0.634644 0.648381
v -2.116721 0.825295 0.462414
v -2.047128 0.938719 0.206049
v -2.030336 0.957645 -0.081685
v -2.068903 0.879195 -0.356984
v -2.156958 0.715309 -0.577935
v -2.281093 0.490940 -0.710901
v -3.689704 0.875816 -0.510762
v -3.801727 0.740182 -0.443950
v -3.891436 0.636613 -0.314972
v -3.945173 0.580877 -0.143463
v -3.954757 0.581459 0.044467
v -3.918730 0.638270 0.220205
v -3.842575 0.742662 0.356999
v -3.737888 0.878741 0.434022
v -3.620605 1.025791 0.439548
v -3.508582 1.161425 0.372736
v -3.418873 1.264994 0.243758
v -3.365136 1.320730 0.072248
v -3.355551 1.320148 -0.115681
v -3.391579 1.263337 -0.291420
v -3.467733 1.158946 -0.428213
v -3.572421 1.022866 -0.505236
v -3.988437 1.336636 -0.327825
v -4.065364 1.280955 -0.291758
v -4.126283 1.239002 -0.222132
v -4.161920 1.217166 -0.129546
v -4.166849 1.218770 -0.028096
v -4.140320 1.243569 0.066773
v -4.086372 1.287789 0.140619
v -4.013217 1.344698 0.182198
v -3.931995 1.405631 0.185181
v -3.855067 1.461312 0.149114
v -3.794148 1.503265 0.079488
v -3.758512 1.525101 -0.013098
v -3.753583 1.523498 -0.114548
v -3.780112 1.498698 -0.209418
v -3.834059 1.454477 -0.283263
v -3.907214 1.397569 -0.324842
v 2.167498 0.015787 -0.626097
v 2.059942 0.251769 -0.677683
v 2.258680 -0.184269 -0.479194
v 2.319606 -0.317943 -0.259338
v 2.341001 -0.364883 0.000000
v 2.319606 -0.317943 0.259338
v 2.258680 -0.184269 0.479194
v 2.167498 0.015787 0.626097
v 2.059942 0.251769 0.677683
v 1.952385 0.487752 0.626097
v 1.861203 0.687808 0.479194
v 1.800277 0.821481 0.259338
v 1.778883 0.868421 -0.000000
v 1.800277 0.821481 -0.259338
v 1.861203 0.687808 -0.479194
v 1.952385 0.487752 -0.626097
v 3.038398 0.546134 -0.341313
v 2.953020 0.658819 -0.369434
v 3.110777 0.450603 -0.261230
v 3.159139 0.386772 -0.141376
v 3.176122 0.364358 0.000000
v 3.159139 0.386772 0.141376
v 3.110777 0.450603 0.261230
v 3.038398 0.546134 0.341313
v 2.953020 0.658819 0.369434
v 2.867643 0.771504 0.341313
v 2.795263 0.867034 0.261230
v 2.746901 0.930865 0.141376
v 2.729918 0.953280 -0.000000
v 2.746901 0.930865 -0.141376
v 2.795263 0.867034 -0.261230
v 2.867643 0.771504 -0.341313
v 3.501838 1.000284 -0.207606
v 3.439173 1.056312 -0.214987
v 3.557524 0.950288 -0.168619
v 3.597753 0.913935 -0.103962
v 3.616401 0.896759 -0.023477
v 3.610629 0.901377 0.060582
v 3.581315 0.927083 0.135418
v 3.532922 0.969966 0.189638
v 3.472818 1.023496 0.214987
v 3.410153 1.079524 0.207606
v 3.354466 1.129521 0.168619
v 3.314237 1.165874 0.103962
v 3.295589 1.183049 0.023477
v 3.301362 1.178432 -0.060582
v 3.330675 1.152725 -0.135418
v 3.379068 1.109843 -0.189638
v 3.660580 1.136674 -0.300919
v 3.569449 1.218153 -0.311652
v 3.741561 1.063967 -0.244222
v 3.800064 1.011101 -0.150194
v 3.827183 0.986124 -0.033150
v 3.818788 0.992838 0.089092
v 3.776159 1.030222 0.197922
v 3.705784 1.092584 0.276770
v 3.618378 1.170430 0.313634
v 3.527247 1.251908 0.302901
v 3.446266 1.324615 0.246204
v 3.387763 1.377481 0.152176
v 3.360644 1.402458 0.035132
v 3.369039 1.395744 -0.087110
v 3.411668 1.358360 -0.195940
v 3.482043 1.295998 -0.274789
v 3.737156 1.279272 -0.361253
v 3.627677 1.377156 -0.374147
v 3.834442 1.191926 -0.293141
v 3.904724 1.128416 -0.180181
v 3.937304 1.098410 -0.039570
v 3.927219 1.106476 0.107285
v 3.876006 1.151387 0.238026
v 3.791461 1.226305 0.332751
v 3.686457 1.319824 0.377037
v 3.576977 1.417708 0.364142
v 3.479691 1.505053 0.296030
v 3.409409 1.568564 0.183070
v 3.376830 1.598570 0.042460
v 3.386915 1.590504 -0.104395
v 3.438127 1.545593 -0.235137
v 3.522672 1.470675 -0.329861
v -4.139265 1.553218 -0.246250
v -4.190305 1.521092 -0.220806
v -4.229887 1.497636 -0.174248
v -4.251983 1.486421 -0.113663
v -4.253232 1.489154 -0.048276
v -4.233442 1.505419 0.011960
v -4.195626 1.532740 0.057873
v -4.145541 1.566957 0.082475
v -4.090814 1.602863 0.082019
v -4.039773 1.634989 0.056575
v -4.000192 1.658445 0.010017
v -3.978095 1.669660 -0.050567
v -3.976847 1.666928 -0.115955
v -3.996637 1.650662 -0.176190
v -4.034453 1.623341 -0.222104
v -4.084538 1.589124 -0.246705
v -4.207220 1.730942 -0.200579
v -4.244474 1.721897 -0.184405
v -4.273070 1.715761 -0.154810
v -4.288654 1.713468 -0.116299
v -4.288854 1.715367 -0.074734
v -4.273639 1.721170 -0.036445
v -4.245326 1.729992 -0.007259
v -4.208226 1.740491 0.008379
v -4.167986 1.751068 0.008089
v -4.130732 1.760113 -0.008085
v -4.102137 1.766249 -0.037680
v -4.086552 1.768542 -0.076191
v -4.086353 1.766643 -0.117755
v -4.101567 1.760840 -0.156045
v -4.129880 1.752018 -0.185230
v -4.166980 1.741519 -0.200869
v -4.278573 1.931904 -0.296923
v -4.346718 1.915358 -0.267338
v -4.399026 1.904134 -0.213202
v -4.427532 1.899940 -0.142757
v -4.427897 1.903414 -0.066727
v -4.400067 1.914029 0.003312
v -4.348277 1.930166 0.056698
v -4.280413 1.949370 0.085304
v -4.206806 1.968718 0.084774
v -4.138660 1.985264 0.055189
v -4.086354 1.996488 0.001053
v -4.057846 2.000682 -0.069392
v -4.057482 1.997208 -0.145422
v -4.085312 1.986594 -0.215461
v -4.137102 1.970456 -0.268847
v -4.204966 1.951252 -0.297453
v -4.297287 2.003008 -0.300262
v -4.365432 1.986463 -0.270677
v -4.417740 1.975239 -0.216541
v -4.446246 1.971044 -0.146096
v -4.446611 1.974519 -0.070067
v -4.418781 1.985133 -0.000027
v -4.366991 2.001271 0.053359
v -4.299127 2.020475 0.081964
v -4.225520 2.039823 0.081434
v -4.157374 2.056369 0.051849
v -4.105068 2.067592 -0.002286
v -4.076560 2.071787 -0.072731
v -4.076196 2.068312 -0.148761
v -4.104026 2.057699 -0.218800
v -4.155816 2.041561 -0.272187
v -4.223680 2.022357 -0.300792
s off
f 2 3 1
f 4 5 3
f 6 7 5
f 8 9 7
f 9 12 11
f 11 14 13
f 13 16 15
f 15 18 17
f 17 20 19
f 19 22 21
f 21 24 23
f 23 26 25
f 26 27 25
f 28 29 27
f 20 91 22
f 30 31 29
f 32 1 31
f 11 37 9
f 45 60 44
f 19 43 42
f 31 47 29
f 7 35 5
f 15 41 40
f 3 33 1
f 27 45 25
f 11 39 38
f 21 44 43
f 1 48 31
f 9 36 7
f 17 42 41
f 29 46 27
f 5 34 3
f 13 40 39
f 25 44 23
f 50 67 66
f 37 54 53
f 46 61 45
f 38 55 54
f 47 62 46
f 39 56 55
f 48 63 47
f 40 57 56
f 34 49 33
f 33 64 48
f 41 58 57
f 35 50 34
f 42 59 58
f 36 51 35
f 43 60 59
f 37 52 36
f 71 166 70
f 59 74 58
f 51 68 67
f 60 75 59
f 52 69 68
f 61 76 60
f 54 69 53
f 61 78 77
f 55 70 54
f 62 79 78
f 56 71 55
f 63 80 79
f 57 72 56
f 49 66 65
f 64 65 80
f 58 73 57
f 82 112 98
f 32 95 96
f 8 83 84
f 16 89 18
f 4 82 81
f 28 93 94
f 12 87 14
f 22 92 24
f 2 96 82
f 10 84 85
f 18 90 20
f 30 94 95
f 6 81 83
f 14 88 16
f 24 93 26
f 10 86 12
f 109 126 110
f 89 106 90
f 83 97 99
f 90 107 91
f 84 99 100
f 91 108 92
f 85 100 101
f 92 109 93
f 85 102 86
f 94 109 110
f 86 103 87
f 95 110 111
f 87 104 88
f 96 111 112
f 88 105 89
f 81 98 97
f 102 119 103
f 110 127 111
f 103 120 104
f 112 127 128
f 104 121 105
f 97 114 113
f 98 128 114
f 105 122 106
f 99 113 115
f 106 123 107
f 100 115 116
f 107 124 108
f 100 117 101
f 108 125 109
f 101 118 102
f 175 190 174
f 79 174 78
f 72 167 71
f 80 175 79
f 73 168 72
f 66 161 65
f 65 176 80
f 74 169 73
f 67 162 66
f 75 170 74
f 68 163 67
f 76 171 75
f 69 164 68
f 77 172 76
f 70 165 69
f 78 173 77
f 167 184 183
f 176 191 175
f 169 184 168
f 162 177 161
f 161 192 176
f 170 185 169
f 162 179 178
f 171 186 170
f 163 180 179
f 172 187 171
f 164 181 180
f 173 188 172
f 165 182 181
f 174 189 173
f 166 183 182
f 2 4 3
f 4 6 5
f 6 8 7
f 8 10 9
f 9 10 12
f 11 12 14
f 13 14 16
f 15 16 18
f 17 18 20
f 19 20 22
f 21 22 24
f 23 24 26
f 26 28 27
f 28 30 29
f 20 90 91
f 30 32 31
f 32 2 1
f 11 38 37
f 45 61 60
f 19 21 43
f 31 48 47
f 7 36 35
f 15 17 41
f 3 34 33
f 27 46 45
f 11 13 39
f 21 23 44
f 1 33 48
f 9 37 36
f 17 19 42
f 29 47 46
f 5 35 34
f 13 15 40
f 25 45 44
f 50 51 67
f 37 38 54
f 46 62 61
f 38 39 55
f 47 63 62
f 39 40 56
f 48 64 63
f 40 41 57
f 34 50 49
f 33 49 64
f 41 42 58
f 35 51 50
f 42 43 59
f 36 52 51
f 43 44 60
f 37 53 52
f 71 167 166
f 59 75 74
f 51 52 68
f 60 76 75
f 52 53 69
f 61 77 76
f 54 70 69
f 61 62 78
f 55 71 70
f 62 63 79
f 56 72 71
f 63 64 80
f 57 73 72
f 49 50 66
f 64 49 65
f 58 74 73
f 82 96 112
f 32 30 95
f 8 6 83
f 16 88 89
f 4 2 82
f 28 26 93
f 12 86 87
f 22 91 92
f 2 32 96
f 10 8 84
f 18 89 90
f 30 28 94
f 6 4 81
f 14 87 88
f 24 92 93
f 10 85 86
f 109 125 126
f 89 105 106
f 83 81 97
f 90 106 107
f 84 83 99
f 91 107 108
f 85 84 100
f 92 108 109
f 85 101 102
f 94 93 109
f 86 102 103
f 95 94 110
f 87 103 104
f 96 95 111
f 88 104 105
f 81 82 98
f 102 118 119
f 110 126 127
f 103 119 120
f 112 111 127
f 104 120 121
f 97 98 114
f 98 112 128
f 105 121 122
f 99 97 113
f 106 122 123
f 100 99 115
f 107 123 124
f 100 116 117
f 108 124 125
f 101 117 118
f 175 191 190
f 79 175 174
f 72 168 167
f 80 176 175
f 73 169 168
f 66 162 161
f 65 161 176
f 74 170 169
f 67 163 162
f 75 171 170
f 68 164 163
f 76 172 171
f 69 165 164
f 77 173 172
f 70 166 165
f 78 174 173
f 167 168 184
f 176 192 191
f 169 185 184
f 162 178 177
f 161 177 192
f 170 186 185
f 162 163 179
f 171 187 186
f 163 164 180
f 172 188 187
f 164 165 181
f 173 189 188
f 165 166 182
f 174 190 189
f 166 167 183
l 129 130
l 131 129
l 132 131
l 133 132
l 134 133
l 135 134
l 136 135
l 137 136
l 138 137
l 139 138
l 140 139
l 141 140
l 142 141
l 143 142
l 144 143
l 130 144
l 115 131
l 132 116
l 123 139
l 140 124
l 133 117
l 141 125
l 134 118
l 142 126
l 135 119
l 143 127
l 136 120
l 144 128
l 137 121
l 114 130
l 129 113
l 138 122
l 145 146
l 147 145
l 148 147
l 149 148
l 150 149
l 151 150
l 152 151
l 153 152
l 154 153
l 155 154
l 156 155
l 157 156
l 158 157
l 159 158
l 160 159
l 146 160
l 136 152
l 153 137
l 130 146
l 145 129
l 144 160
l 154 138
l 147 131
l 155 139
l 148 132
l 156 140
l 149 133
l 157 141
l 150 134
l 158 142
l 151 135
l 159 143
l 193 194
l 194 195
l 195 196
l 196 197
l 197 198
l 198 199
l 199 200
l 200 201
l 201 202
l 202 203
l 203 204
l 204 205
l 205 206
l 206 207
l 207 208
l 208 193
l 181 197
l 196 180
l 189 205
l 204 188
l 182 198
l 190 206
l 183 199
l 191 207
l 184 200
l 192 208
l 185 201
l 178 194
l 193 177
l 186 202
l 179 195
l 187 203
l 209 210
l 210 211
l 211 212
l 212 213
l 213 214
l 214 215
l 215 216
l 216 217
l 217 218
l 218 219
l 219 220
l 220 221
l 221 222
l 222 223
l 223 224
l 224 209
l 202 218
l 217 201
l 195 211
l 210 194
l 203 219
l 196 212
l 204 220
l 197 213
l 205 221
l 198 214
l 206 222
l 199 215
l 207 223
l 200 216
l 208 224
l 209 193
