# Blender v2.93.18 OBJ File: ''
# www.blender.org
o Plane
v -20.000000 0.000000 20.000000
v 20.000000 0.000000 20.000000
v -20.000000 0.000000 -20.000000
v 20.000000 0.000000 -20.000000
v -14.285715 0.000000 20.000000
v -8.571428 0.000000 20.000000
v -2.857143 0.000000 20.000000
v 2.857143 0.000000 20.000000
v 8.571428 0.000000 20.000000
v 14.285715 0.000000 20.000000
v 14.285715 0.000000 -20.000000
v 8.571428 0.000000 -20.000000
v 2.857143 0.000000 -20.000000
v -2.857143 0.000000 -20.000000
v -8.571428 0.000000 -20.000000
v -14.285715 0.000000 -20.000000
v -20.000000 0.000000 -14.285715
v -20.000000 0.000000 -8.571428
v -20.000000 0.000000 -2.857143
v -20.000000 0.000000 2.857143
v -20.000000 0.000000 8.571428
v -20.000000 0.000000 14.285715
v 20.000000 0.000000 14.285715
v 20.000000 0.000000 8.571428
v 20.000000 0.000000 2.857143
v 20.000000 0.000000 -2.857143
v 20.000000 0.000000 -8.571428
v 20.000000 0.000000 -14.285715
v -14.285715 0.000000 14.285715
v -14.285715 0.000000 8.571428
v -14.285715 0.000000 2.857143
v -14.285715 0.000000 -2.857143
v -14.285715 0.000000 -8.571428
v -14.285715 0.000000 -14.285715
v -8.571428 0.000000 14.285715
v -8.571428 0.000000 8.571428
v -8.571428 0.000000 2.857143
v -8.571428 0.000000 -2.857143
v -8.571428 0.000000 -8.571428
v -8.571428 0.000000 -14.285715
v -2.857143 0.000000 14.285715
v -2.857143 0.000000 8.571428
v -2.857143 0.000000 2.857143
v -2.857143 0.000000 -2.857143
v -2.857143 0.000000 -8.571428
v -2.857143 0.000000 -14.285715
v 2.857143 0.000000 14.285715
v 2.857143 0.000000 8.571428
v 2.857143 0.000000 2.857143
v 2.857143 0.000000 -2.857143
v 2.857143 0.000000 -8.571428
v 2.857143 0.000000 -14.285715
v 8.571428 0.000000 14.285715
v 8.571428 0.000000 8.571428
v 8.571428 0.000000 2.857143
v 8.571428 0.000000 -2.857143
v 8.571428 0.000000 -8.571428
v 8.571428 0.000000 -14.285715
v 14.285715 0.000000 14.285715
v 14.285715 0.000000 8.571428
v 14.285715 0.000000 2.857143
v 14.285715 0.000000 -2.857143
v 14.285715 0.000000 -8.571428
v 14.285715 0.000000 -14.285715
s off
f 28 11 64
f 34 3 17
f 40 16 34
f 46 15 40
f 52 14 46
f 58 13 52
f 64 12 58
f 10 53 9
f 59 54 53
f 60 55 54
f 61 56 55
f 62 57 56
f 63 58 57
f 9 47 8
f 53 48 47
f 54 49 48
f 55 50 49
f 56 51 50
f 57 52 51
f 8 41 7
f 47 42 41
f 48 43 42
f 49 44 43
f 50 45 44
f 51 46 45
f 7 35 6
f 41 36 35
f 42 37 36
f 43 38 37
f 44 39 38
f 45 40 39
f 6 29 5
f 35 30 29
f 36 31 30
f 37 32 31
f 38 33 32
f 39 34 33
f 5 22 1
f 29 21 22
f 30 20 21
f 31 19 20
f 32 18 19
f 33 17 18
f 2 59 10
f 23 60 59
f 24 61 60
f 25 62 61
f 26 63 62
f 27 64 63
f 28 4 11
f 34 16 3
f 40 15 16
f 46 14 15
f 52 13 14
f 58 12 13
f 64 11 12
f 10 59 53
f 59 60 54
f 60 61 55
f 61 62 56
f 62 63 57
f 63 64 58
f 9 53 47
f 53 54 48
f 54 55 49
f 55 56 50
f 56 57 51
f 57 58 52
f 8 47 41
f 47 48 42
f 48 49 43
f 49 50 44
f 50 51 45
f 51 52 46
f 7 41 35
f 41 42 36
f 42 43 37
f 43 44 38
f 44 45 39
f 45 46 40
f 6 35 29
f 35 36 30
f 36 37 31
f 37 38 32
f 38 39 33
f 39 40 34
f 5 29 22
f 29 30 21
f 30 31 20
f 31 32 19
f 32 33 18
f 33 34 17
f 2 23 59
f 23 24 60
f 24 25 61
f 25 26 62
f 26 27 63
f 27 28 64
