# Blender v2.93.18 OBJ File: ''
# www.blender.org
o Cube_Cube.001
v -20.000000 -20.000000 1.000000
v -20.000000 20.000000 1.000000
v -20.000000 -20.000000 -1.000000
v -20.000000 20.000000 -1.000000
v 20.000000 -20.000000 1.000000
v 20.000000 20.000000 1.000000
v 20.000000 -20.000000 -1.000000
v 20.000000 20.000000 -1.000000
v -20.000000 -18.095238 1.000000
v -20.000000 -16.190475 1.000000
v -20.000000 -14.285715 1.000000
v -20.000000 -12.380953 1.000000
v -20.000000 -10.476191 1.000000
v -20.000000 -8.571429 1.000000
v -20.000000 -6.666667 1.000000
v -20.000000 -4.761905 1.000000
v -20.000000 -2.857143 1.000000
v -20.000000 -0.952381 1.000000
v -20.000000 0.952381 1.000000
v -20.000000 2.857143 1.000000
v -20.000000 4.761905 1.000000
v -20.000000 6.666666 1.000000
v -20.000000 8.571428 1.000000
v -20.000000 10.476190 1.000000
v -20.000000 12.380952 1.000000
v -20.000000 14.285713 1.000000
v -20.000000 16.190475 1.000000
v -20.000000 18.095238 1.000000
v -20.000000 18.095238 -1.000000
v -20.000000 16.190475 -1.000000
v -20.000000 14.285715 -1.000000
v -20.000000 12.380953 -1.000000
v -20.000000 10.476191 -1.000000
v -20.000000 8.571429 -1.000000
v -20.000000 6.666667 -1.000000
v -20.000000 4.761905 -1.000000
v -20.000000 2.857143 -1.000000
v -20.000000 0.952381 -1.000000
v -20.000000 -0.952381 -1.000000
v -20.000000 -2.857143 -1.000000
v -20.000000 -4.761905 -1.000000
v -20.000000 -6.666666 -1.000000
v -20.000000 -8.571428 -1.000000
v -20.000000 -10.476190 -1.000000
v -20.000000 -12.380952 -1.000000
v -20.000000 -14.285713 -1.000000
v -20.000000 -16.190475 -1.000000
v -20.000000 -18.095238 -1.000000
v 20.000000 18.095238 -1.000000
v 20.000000 16.190475 -1.000000
v 20.000000 14.285715 -1.000000
v 20.000000 12.380953 -1.000000
v 20.000000 10.476191 -1.000000
v 20.000000 8.571429 -1.000000
v 20.000000 6.666667 -1.000000
v 20.000000 4.761905 -1.000000
v 20.000000 2.857143 -1.000000
v 20.000000 0.952381 -1.000000
v 20.000000 -0.952381 -1.000000
v 20.000000 -2.857143 -1.000000
v 20.000000 -4.761905 -1.000000
v 20.000000 -6.666666 -1.000000
v 20.000000 -8.571428 -1.000000
v 20.000000 -10.476190 -1.000000
v 20.000000 -12.380952 -1.000000
v 20.000000 -14.285713 -1.000000
v 20.000000 -16.190475 -1.000000
v 20.000000 -18.095238 -1.000000
v 20.000000 18.095238 1.000000
v 20.000000 16.190475 1.000000
v 20.000000 14.285715 1.000000
v 20.000000 12.380953 1.000000
v 20.000000 10.476191 1.000000
v 20.000000 8.571429 1.000000
v 20.000000 6.666667 1.000000
v 20.000000 4.761905 1.000000
v 20.000000 2.857143 1.000000
v 20.000000 0.952381 1.000000
v 20.000000 -0.952381 1.000000
v 20.000000 -2.857143 1.000000
v 20.000000 -4.761905 1.000000
v 20.000000 -6.666666 1.000000
v 20.000000 -8.571428 1.000000
v 20.000000 -10.476190 1.000000
v 20.000000 -12.380952 1.000000
v 20.000000 -14.285713 1.000000
v 20.000000 -16.190475 1.000000
v 20.000000 -18.095238 1.000000
v 18.095238 -20.000000 -1.000000
v 16.190475 -20.000000 -1.000000
v 14.285715 -20.000000 -1.000000
v 12.380953 -20.000000 -1.000000
v 10.476191 -20.000000 -1.000000
v 8.571429 -20.000000 -1.000000
v 6.666667 -20.000000 -1.000000
v 4.761905 -20.000000 -1.000000
v 2.857143 -20.000000 -1.000000
v 0.952381 -20.000000 -1.000000
v -0.952381 -20.000000 -1.000000
v -2.857143 -20.000000 -1.000000
v -4.761905 -20.000000 -1.000000
v -6.666666 -20.000000 -1.000000
v -8.571428 -20.000000 -1.000000
v -10.476190 -20.000000 -1.000000
v -12.380952 -20.000000 -1.000000
v -14.285713 -20.000000 -1.000000
v -16.190475 -20.000000 -1.000000
v -18.095238 -20.000000 -1.000000
v -18.095238 20.000000 -1.000000
v -16.190475 20.000000 -1.000000
v -14.285715 20.000000 -1.000000
v -12.380953 20.000000 -1.000000
v -10.476191 20.000000 -1.000000
v -8.571429 20.000000 -1.000000
v -6.666667 20.000000 -1.000000
v -4.761905 20.000000 -1.000000
v -2.857143 20.000000 -1.000000
v -0.952381 20.000000 -1.000000
v 0.952381 20.000000 -1.000000
v 2.857143 20.000000 -1.000000
v 4.761905 20.000000 -1.000000
v 6.666666 20.000000 -1.000000
v 8.571428 20.000000 -1.000000
v 10.476190 20.000000 -1.000000
v 12.380952 20.000000 -1.000000
v 14.285713 20.000000 -1.000000
v 16.190475 20.000000 -1.000000
v 18.095238 20.000000 -1.000000
v -18.095238 -20.000000 1.000000
v -16.190475 -20.000000 1.000000
v -14.285715 -20.000000 1.000000
v -12.380953 -20.000000 1.000000
v -10.476191 -20.000000 1.000000
v -8.571429 -20.000000 1.000000
v -6.666667 -20.000000 1.000000
v -4.761905 -20.000000 1.000000
v -2.857143 -20.000000 1.000000
v -0.952381 -20.000000 1.000000
v 0.952381 -20.000000 1.000000
v 2.857143 -20.000000 1.000000
v 4.761905 -20.000000 1.000000
v 6.666666 -20.000000 1.000000
v 8.571428 -20.000000 1.000000
v 10.476190 -20.000000 1.000000
v 12.380952 -20.000000 1.000000
v 14.285713 -20.000000 1.000000
v 16.190475 -20.000000 1.000000
v 18.095238 -20.000000 1.000000
v 18.095238 20.000000 1.000000
v 16.190475 20.000000 1.000000
v 14.285715 20.000000 1.000000
v 12.380953 20.000000 1.000000
v 10.476191 20.000000 1.000000
v 8.571429 20.000000 1.000000
v 6.666667 20.000000 1.000000
v 4.761905 20.000000 1.000000
v 2.857143 20.000000 1.000000
v 0.952381 20.000000 1.000000
v -0.952381 20.000000 1.000000
v -2.857143 20.000000 1.000000
v -4.761905 20.000000 1.000000
v -6.666666 20.000000 1.000000
v -8.571428 20.000000 1.000000
v -10.476190 20.000000 1.000000
v -12.380952 20.000000 1.000000
v -14.285713 20.000000 1.000000
v -16.190475 20.000000 1.000000
v -18.095238 20.000000 1.000000
v 18.095238 -18.095238 1.000000
v 16.190475 -18.095238 1.000000
v 14.285715 -18.095238 1.000000
v 12.380953 -18.095238 1.000000
v 10.476191 -18.095238 1.000000
v 8.571429 -18.095238 1.000000
v 6.666667 -18.095238 1.000000
v 4.761905 -18.095238 1.000000
v 2.857143 -18.095238 1.000000
v 0.952381 -18.095238 1.000000
v -0.952381 -18.095238 1.000000
v -2.857143 -18.095238 1.000000
v -4.761905 -18.095238 1.000000
v -6.666666 -18.095238 1.000000
v -8.571428 -18.095238 1.000000
v -10.476190 -18.095238 1.000000
v -12.380952 -18.095238 1.000000
v -14.285713 -18.095238 1.000000
v -16.190475 -18.095238 1.000000
v -18.095238 -18.095238 1.000000
v 18.095238 -16.190475 1.000000
v 16.190475 -16.190475 1.000000
v 14.285715 -16.190475 1.000000
v 12.380953 -16.190475 1.000000
v 10.476191 -16.190475 1.000000
v 8.571429 -16.190475 1.000000
v 6.666667 -16.190475 1.000000
v 4.761905 -16.190475 1.000000
v 2.857143 -16.190475 1.000000
v 0.952381 -16.190475 1.000000
v -0.952381 -16.190475 1.000000
v -2.857143 -16.190475 1.000000
v -4.761905 -16.190475 1.000000
v -6.666666 -16.190475 1.000000
v -8.571428 -16.190475 1.000000
v -10.476190 -16.190475 1.000000
v -12.380952 -16.190475 1.000000
v -14.285713 -16.190475 1.000000
v -16.190475 -16.190475 1.000000
v -18.095238 -16.190475 1.000000
v 18.095238 -14.285713 1.000000
v 16.190475 -14.285713 1.000000
v 14.285715 -14.285713 1.000000
v 12.380953 -14.285713 1.000000
v 10.476191 -14.285713 1.000000
v 8.571429 -14.285713 1.000000
v 6.666667 -14.285713 1.000000
v 4.761905 -14.285713 1.000000
v 2.857143 -14.285713 1.000000
v 0.952381 -14.285713 1.000000
v -0.952381 -14.285713 1.000000
v -2.857143 -14.285713 1.000000
v -4.761905 -14.285713 1.000000
v -6.666666 -14.285713 1.000000
v -8.571428 -14.285713 1.000000
v -10.476190 -14.285713 1.000000
v -12.380952 -14.285713 1.000000
v -14.285713 -14.285713 1.000000
v -16.190475 -14.285713 1.000000
v -18.095238 -14.285715 1.000000
v 18.095238 -12.380952 1.000000
v 16.190475 -12.380952 1.000000
v 14.285715 -12.380952 1.000000
v 12.380953 -12.380952 1.000000
v 10.476191 -12.380952 1.000000
v 8.571429 -12.380952 1.000000
v 6.666667 -12.380952 1.000000
v 4.761905 -12.380952 1.000000
v 2.857143 -12.380952 1.000000
v 0.952381 -12.380952 1.000000
v -0.952381 -12.380952 1.000000
v -2.857143 -12.380952 1.000000
v -4.761905 -12.380952 1.000000
v -6.666666 -12.380952 1.000000
v -8.571428 -12.380952 1.000000
v -10.476190 -12.380952 1.000000
v -12.380952 -12.380952 1.000000
v -14.285713 -12.380952 1.000000
v -16.190475 -12.380952 1.000000
v -18.095238 -12.380953 1.000000
v 18.095238 -10.476190 1.000000
v 16.190475 -10.476190 1.000000
v 14.285715 -10.476190 1.000000
v 12.380953 -10.476190 1.000000
v 10.476191 -10.476190 1.000000
v 8.571429 -10.476190 1.000000
v 6.666667 -10.476190 1.000000
v 4.761905 -10.476190 1.000000
v 2.857143 -10.476190 1.000000
v 0.952381 -10.476190 1.000000
v -0.952381 -10.476190 1.000000
v -2.857143 -10.476190 1.000000
v -4.761905 -10.476190 1.000000
v -6.666666 -10.476190 1.000000
v -8.571428 -10.476190 1.000000
v -10.476190 -10.476190 1.000000
v -12.380952 -10.476190 1.000000
v -14.285713 -10.476190 1.000000
v -16.190475 -10.476190 1.000000
v -18.095238 -10.476191 1.000000
v 18.095238 -8.571428 1.000000
v 16.190475 -8.571428 1.000000
v 14.285715 -8.571428 1.000000
v 12.380953 -8.571428 1.000000
v 10.476191 -8.571428 1.000000
v 8.571429 -8.571428 1.000000
v 6.666667 -8.571428 1.000000
v 4.761905 -8.571428 1.000000
v 2.857143 -8.571428 1.000000
v 0.952381 -8.571428 1.000000
v -0.952381 -8.571428 1.000000
v -2.857143 -8.571428 1.000000
v -4.761905 -8.571428 1.000000
v -6.666666 -8.571428 1.000000
v -8.571428 -8.571428 1.000000
v -10.476190 -8.571428 1.000000
v -12.380952 -8.571428 1.000000
v -14.285713 -8.571428 1.000000
v -16.190475 -8.571428 1.000000
v -18.095238 -8.571429 1.000000
v 18.095238 -6.666666 1.000000
v 16.190475 -6.666666 1.000000
v 14.285715 -6.666666 1.000000
v 12.380953 -6.666666 1.000000
v 10.476191 -6.666666 1.000000
v 8.571429 -6.666666 1.000000
v 6.666667 -6.666666 1.000000
v 4.761905 -6.666666 1.000000
v 2.857143 -6.666666 1.000000
v 0.952381 -6.666666 1.000000
v -0.952381 -6.666666 1.000000
v -2.857143 -6.666666 1.000000
v -4.761905 -6.666666 1.000000
v -6.666666 -6.666666 1.000000
v -8.571428 -6.666666 1.000000
v -10.476190 -6.666666 1.000000
v -12.380952 -6.666666 1.000000
v -14.285713 -6.666666 1.000000
v -16.190475 -6.666667 1.000000
v -18.095238 -6.666667 1.000000
v 18.095238 -4.761905 1.000000
v 16.190475 -4.761905 1.000000
v 14.285715 -4.761905 1.000000
v 12.380953 -4.761905 1.000000
v 10.476191 -4.761905 1.000000
v 8.571429 -4.761905 1.000000
v 6.666667 -4.761905 1.000000
v 4.761905 -4.761905 1.000000
v 2.857143 -4.761905 1.000000
v 0.952381 -4.761905 1.000000
v -0.952381 -4.761905 1.000000
v -2.857143 -4.761905 1.000000
v -4.761905 -4.761905 1.000000
v -6.666666 -4.761905 1.000000
v -8.571428 -4.761905 1.000000
v -10.476190 -4.761905 1.000000
v -12.380952 -4.761905 1.000000
v -14.285713 -4.761905 1.000000
v -16.190475 -4.761905 1.000000
v -18.095238 -4.761905 1.000000
v 18.095238 -2.857143 1.000000
v 16.190475 -2.857143 1.000000
v 14.285715 -2.857143 1.000000
v 12.380953 -2.857143 1.000000
v 10.476191 -2.857143 1.000000
v 8.571429 -2.857143 1.000000
v 6.666667 -2.857143 1.000000
v 4.761905 -2.857143 1.000000
v 2.857143 -2.857143 1.000000
v 0.952381 -2.857143 1.000000
v -0.952381 -2.857143 1.000000
v -2.857143 -2.857143 1.000000
v -4.761905 -2.857143 1.000000
v -6.666666 -2.857143 1.000000
v -8.571428 -2.857143 1.000000
v -10.476190 -2.857143 1.000000
v -12.380952 -2.857143 1.000000
v -14.285713 -2.857143 1.000000
v -16.190475 -2.857143 1.000000
v -18.095238 -2.857143 1.000000
v 18.095238 -0.952381 1.000000
v 16.190475 -0.952381 1.000000
v 14.285715 -0.952381 1.000000
v 12.380953 -0.952381 1.000000
v 10.476191 -0.952381 1.000000
v 8.571429 -0.952381 1.000000
v 6.666667 -0.952381 1.000000
v 4.761905 -0.952381 1.000000
v 2.857143 -0.952381 1.000000
v 0.952381 -0.952381 1.000000
v -0.952381 -0.952381 1.000000
v -2.857143 -0.952381 1.000000
v -4.761905 -0.952381 1.000000
v -6.666666 -0.952381 1.000000
v -8.571428 -0.952381 1.000000
v -10.476190 -0.952381 1.000000
v -12.380952 -0.952381 1.000000
v -14.285713 -0.952381 1.000000
v -16.190475 -0.952381 1.000000
v -18.095238 -0.952381 1.000000
v 18.095238 0.952381 1.000000
v 16.190475 0.952381 1.000000
v 14.285715 0.952381 1.000000
v 12.380953 0.952381 1.000000
v 10.476191 0.952381 1.000000
v 8.571429 0.952381 1.000000
v 6.666667 0.952381 1.000000
v 4.761905 0.952381 1.000000
v 2.857143 0.952381 1.000000
v 0.952381 0.952381 1.000000
v -0.952381 0.952381 1.000000
v -2.857143 0.952381 1.000000
v -4.761905 0.952381 1.000000
v -6.666666 0.952381 1.000000
v -8.571428 0.952381 1.000000
v -10.476190 0.952381 1.000000
v -12.380952 0.952381 1.000000
v -14.285713 0.952381 1.000000
v -16.190475 0.952381 1.000000
v -18.095238 0.952381 1.000000
v 18.095238 2.857143 1.000000
v 16.190475 2.857143 1.000000
v 14.285715 2.857143 1.000000
v 12.380953 2.857143 1.000000
v 10.476191 2.857143 1.000000
v 8.571429 2.857143 1.000000
v 6.666667 2.857143 1.000000
v 4.761905 2.857143 1.000000
v 2.857143 2.857143 1.000000
v 0.952381 2.857143 1.000000
v -0.952381 2.857143 1.000000
v -2.857143 2.857143 1.000000
v -4.761905 2.857143 1.000000
v -6.666666 2.857143 1.000000
v -8.571428 2.857143 1.000000
v -10.476190 2.857143 1.000000
v -12.380952 2.857143 1.000000
v -14.285713 2.857143 1.000000
v -16.190475 2.857143 1.000000
v -18.095238 2.857143 1.000000
v 18.095238 4.761905 1.000000
v 16.190475 4.761905 1.000000
v 14.285715 4.761905 1.000000
v 12.380953 4.761905 1.000000
v 10.476191 4.761905 1.000000
v 8.571429 4.761905 1.000000
v 6.666667 4.761905 1.000000
v 4.761905 4.761905 1.000000
v 2.857143 4.761905 1.000000
v 0.952381 4.761905 1.000000
v -0.952381 4.761905 1.000000
v -2.857143 4.761905 1.000000
v -4.761905 4.761905 1.000000
v -6.666666 4.761905 1.000000
v -8.571428 4.761905 1.000000
v -10.476190 4.761905 1.000000
v -12.380952 4.761905 1.000000
v -14.285713 4.761905 1.000000
v -16.190475 4.761905 1.000000
v -18.095238 4.761905 1.000000
v 18.095238 6.666667 1.000000
v 16.190475 6.666667 1.000000
v 14.285715 6.666667 1.000000
v 12.380953 6.666667 1.000000
v 10.476191 6.666667 1.000000
v 8.571429 6.666667 1.000000
v 6.666667 6.666667 1.000000
v 4.761905 6.666667 1.000000
v 2.857143 6.666667 1.000000
v 0.952381 6.666667 1.000000
v -0.952381 6.666667 1.000000
v -2.857143 6.666667 1.000000
v -4.761905 6.666667 1.000000
v -6.666666 6.666667 1.000000
v -8.571428 6.666667 1.000000
v -10.476190 6.666667 1.000000
v -12.380952 6.666667 1.000000
v -14.285713 6.666667 1.000000
v -16.190475 6.666667 1.000000
v -18.095238 6.666666 1.000000
v 18.095238 8.571429 1.000000
v 16.190475 8.571429 1.000000
v 14.285715 8.571429 1.000000
v 12.380953 8.571429 1.000000
v 10.476191 8.571429 1.000000
v 8.571429 8.571429 1.000000
v 6.666667 8.571429 1.000000
v 4.761905 8.571429 1.000000
v 2.857143 8.571429 1.000000
v 0.952381 8.571429 1.000000
v -0.952381 8.571429 1.000000
v -2.857143 8.571429 1.000000
v -4.761905 8.571429 1.000000
v -6.666666 8.571429 1.000000
v -8.571428 8.571429 1.000000
v -10.476190 8.571429 1.000000
v -12.380952 8.571429 1.000000
v -14.285713 8.571429 1.000000
v -16.190475 8.571428 1.000000
v -18.095238 8.571428 1.000000
v 18.095238 10.476191 1.000000
v 16.190475 10.476191 1.000000
v 14.285715 10.476191 1.000000
v 12.380953 10.476191 1.000000
v 10.476191 10.476191 1.000000
v 8.571429 10.476191 1.000000
v 6.666667 10.476191 1.000000
v 4.761905 10.476191 1.000000
v 2.857143 10.476191 1.000000
v 0.952381 10.476191 1.000000
v -0.952381 10.476191 1.000000
v -2.857143 10.476191 1.000000
v -4.761905 10.476191 1.000000
v -6.666666 10.476191 1.000000
v -8.571428 10.476191 1.000000
v -10.476190 10.476191 1.000000
v -12.380952 10.476191 1.000000
v -14.285713 10.476191 1.000000
v -16.190475 10.476191 1.000000
v -18.095238 10.476191 1.000000
v 18.095238 12.380953 1.000000
v 16.190475 12.380953 1.000000
v 14.285715 12.380953 1.000000
v 12.380953 12.380953 1.000000
v 10.476191 12.380953 1.000000
v 8.571429 12.380953 1.000000
v 6.666667 12.380953 1.000000
v 4.761905 12.380953 1.000000
v 2.857143 12.380953 1.000000
v 0.952381 12.380953 1.000000
v -0.952381 12.380953 1.000000
v -2.857143 12.380953 1.000000
v -4.761905 12.380953 1.000000
v -6.666666 12.380953 1.000000
v -8.571428 12.380953 1.000000
v -10.476190 12.380953 1.000000
v -12.380952 12.380953 1.000000
v -14.285713 12.380953 1.000000
v -16.190475 12.380953 1.000000
v -18.095238 12.380953 1.000000
v 18.095238 14.285715 1.000000
v 16.190475 14.285715 1.000000
v 14.285715 14.285715 1.000000
v 12.380953 14.285715 1.000000
v 10.476191 14.285715 1.000000
v 8.571429 14.285715 1.000000
v 6.666667 14.285715 1.000000
v 4.761905 14.285715 1.000000
v 2.857143 14.285715 1.000000
v 0.952381 14.285715 1.000000
v -0.952381 14.285715 1.000000
v -2.857143 14.285715 1.000000
v -4.761905 14.285715 1.000000
v -6.666666 14.285715 1.000000
v -8.571428 14.285715 1.000000
v -10.476190 14.285715 1.000000
v -12.380952 14.285715 1.000000
v -14.285713 14.285715 1.000000
v -16.190475 14.285715 1.000000
v -18.095238 14.285715 1.000000
v 18.095238 16.190475 1.000000
v 16.190475 16.190475 1.000000
v 14.285715 16.190475 1.000000
v 12.380953 16.190475 1.000000
v 10.476191 16.190475 1.000000
v 8.571429 16.190475 1.000000
v 6.666667 16.190475 1.000000
v 4.761905 16.190475 1.000000
v 2.857143 16.190475 1.000000
v 0.952381 16.190475 1.000000
v -0.952381 16.190475 1.000000
v -2.857143 16.190475 1.000000
v -4.761905 16.190475 1.000000
v -6.666666 16.190475 1.000000
v -8.571428 16.190475 1.000000
v -10.476190 16.190475 1.000000
v -12.380952 16.190475 1.000000
v -14.285713 16.190475 1.000000
v -16.190475 16.190475 1.000000
v -18.095238 16.190475 1.000000
v 18.095238 18.095238 1.000000
v 16.190475 18.095238 1.000000
v 14.285715 18.095238 1.000000
v 12.380953 18.095238 1.000000
v 10.476191 18.095238 1.000000
v 8.571429 18.095238 1.000000
v 6.666667 18.095238 1.000000
v 4.761905 18.095238 1.000000
v 2.857143 18.095238 1.000000
v 0.952381 18.095238 1.000000
v -0.952381 18.095238 1.000000
v -2.857143 18.095238 1.000000
v -4.761905 18.095238 1.000000
v -6.666666 18.095238 1.000000
v -8.571428 18.095238 1.000000
v -10.476190 18.095238 1.000000
v -12.380952 18.095238 1.000000
v -14.285713 18.095238 1.000000
v -16.190475 18.095238 1.000000
v -18.095238 18.095238 1.000000
v -18.095238 -18.095238 -1.000000
v -16.190475 -18.095238 -1.000000
v -14.285715 -18.095238 -1.000000
v -12.380953 -18.095238 -1.000000
v -10.476191 -18.095238 -1.000000
v -8.571429 -18.095238 -1.000000
v -6.666667 -18.095238 -1.000000
v -4.761905 -18.095238 -1.000000
v -2.857143 -18.095238 -1.000000
v -0.952381 -18.095238 -1.000000
v 0.952381 -18.095238 -1.000000
v 2.857143 -18.095238 -1.000000
v 4.761905 -18.095238 -1.000000
v 6.666666 -18.095238 -1.000000
v 8.571428 -18.095238 -1.000000
v 10.476190 -18.095238 -1.000000
v 12.380952 -18.095238 -1.000000
v 14.285713 -18.095238 -1.000000
v 16.190475 -18.095238 -1.000000
v 18.095238 -18.095238 -1.000000
v -18.095238 -16.190475 -1.000000
v -16.190475 -16.190475 -1.000000
v -14.285715 -16.190475 -1.000000
v -12.380953 -16.190475 -1.000000
v -10.476191 -16.190475 -1.000000
v -8.571429 -16.190475 -1.000000
v -6.666667 -16.190475 -1.000000
v -4.761905 -16.190475 -1.000000
v -2.857143 -16.190475 -1.000000
v -0.952381 -16.190475 -1.000000
v 0.952381 -16.190475 -1.000000
v 2.857143 -16.190475 -1.000000
v 4.761905 -16.190475 -1.000000
v 6.666666 -16.190475 -1.000000
v 8.571428 -16.190475 -1.000000
v 10.476190 -16.190475 -1.000000
v 12.380952 -16.190475 -1.000000
v 14.285713 -16.190475 -1.000000
v 16.190475 -16.190475 -1.000000
v 18.095238 -16.190475 -1.000000
v -18.095238 -14.285713 -1.000000
v -16.190475 -14.285713 -1.000000
v -14.285715 -14.285713 -1.000000
v -12.380953 -14.285713 -1.000000
v -10.476191 -14.285713 -1.000000
v -8.571429 -14.285713 -1.000000
v -6.666667 -14.285713 -1.000000
v -4.761905 -14.285713 -1.000000
v -2.857143 -14.285713 -1.000000
v -0.952381 -14.285713 -1.000000
v 0.952381 -14.285713 -1.000000
v 2.857143 -14.285713 -1.000000
v 4.761905 -14.285713 -1.000000
v 6.666666 -14.285713 -1.000000
v 8.571428 -14.285713 -1.000000
v 10.476190 -14.285713 -1.000000
v 12.380952 -14.285713 -1.000000
v 14.285713 -14.285713 -1.000000
v 16.190475 -14.285713 -1.000000
v 18.095238 -14.285713 -1.000000
v -18.095238 -12.380952 -1.000000
v -16.190475 -12.380952 -1.000000
v -14.285715 -12.380952 -1.000000
v -12.380953 -12.380952 -1.000000
v -10.476191 -12.380952 -1.000000
v -8.571429 -12.380952 -1.000000
v -6.666667 -12.380952 -1.000000
v -4.761905 -12.380952 -1.000000
v -2.857143 -12.380952 -1.000000
v -0.952381 -12.380952 -1.000000
v 0.952381 -12.380952 -1.000000
v 2.857143 -12.380952 -1.000000
v 4.761905 -12.380952 -1.000000
v 6.666666 -12.380952 -1.000000
v 8.571428 -12.380952 -1.000000
v 10.476190 -12.380952 -1.000000
v 12.380952 -12.380952 -1.000000
v 14.285713 -12.380952 -1.000000
v 16.190475 -12.380952 -1.000000
v 18.095238 -12.380952 -1.000000
v -18.095238 -10.476190 -1.000000
v -16.190475 -10.476190 -1.000000
v -14.285715 -10.476190 -1.000000
v -12.380953 -10.476190 -1.000000
v -10.476191 -10.476190 -1.000000
v -8.571429 -10.476190 -1.000000
v -6.666667 -10.476190 -1.000000
v -4.761905 -10.476190 -1.000000
v -2.857143 -10.476190 -1.000000
v -0.952381 -10.476190 -1.000000
v 0.952381 -10.476190 -1.000000
v 2.857143 -10.476190 -1.000000
v 4.761905 -10.476190 -1.000000
v 6.666666 -10.476190 -1.000000
v 8.571428 -10.476190 -1.000000
v 10.476190 -10.476190 -1.000000
v 12.380952 -10.476190 -1.000000
v 14.285713 -10.476190 -1.000000
v 16.190475 -10.476190 -1.000000
v 18.095238 -10.476190 -1.000000
v -18.095238 -8.571428 -1.000000
v -16.190475 -8.571428 -1.000000
v -14.285715 -8.571428 -1.000000
v -12.380953 -8.571428 -1.000000
v -10.476191 -8.571428 -1.000000
v -8.571429 -8.571428 -1.000000
v -6.666667 -8.571428 -1.000000
v -4.761905 -8.571428 -1.000000
v -2.857143 -8.571428 -1.000000
v -0.952381 -8.571428 -1.000000
v 0.952381 -8.571428 -1.000000
v 2.857143 -8.571428 -1.000000
v 4.761905 -8.571428 -1.000000
v 6.666666 -8.571428 -1.000000
v 8.571428 -8.571428 -1.000000
v 10.476190 -8.571428 -1.000000
v 12.380952 -8.571428 -1.000000
v 14.285713 -8.571428 -1.000000
v 16.190475 -8.571428 -1.000000
v 18.095238 -8.571428 -1.000000
v -18.095238 -6.666666 -1.000000
v -16.190475 -6.666666 -1.000000
v -14.285715 -6.666666 -1.000000
v -12.380953 -6.666666 -1.000000
v -10.476191 -6.666666 -1.000000
v -8.571429 -6.666666 -1.000000
v -6.666667 -6.666666 -1.000000
v -4.761905 -6.666666 -1.000000
v -2.857143 -6.666666 -1.000000
v -0.952381 -6.666666 -1.000000
v 0.952381 -6.666666 -1.000000
v 2.857143 -6.666666 -1.000000
v 4.761905 -6.666666 -1.000000
v 6.666666 -6.666666 -1.000000
v 8.571428 -6.666666 -1.000000
v 10.476190 -6.666666 -1.000000
v 12.380952 -6.666666 -1.000000
v 14.285713 -6.666666 -1.000000
v 16.190475 -6.666666 -1.000000
v 18.095238 -6.666666 -1.000000
v -18.095238 -4.761905 -1.000000
v -16.190475 -4.761905 -1.000000
v -14.285715 -4.761905 -1.000000
v -12.380953 -4.761905 -1.000000
v -10.476191 -4.761905 -1.000000
v -8.571429 -4.761905 -1.000000
v -6.666667 -4.761905 -1.000000
v -4.761905 -4.761905 -1.000000
v -2.857143 -4.761905 -1.000000
v -0.952381 -4.761905 -1.000000
v 0.952381 -4.761905 -1.000000
v 2.857143 -4.761905 -1.000000
v 4.761905 -4.761905 -1.000000
v 6.666666 -4.761905 -1.000000
v 8.571428 -4.761905 -1.000000
v 10.476190 -4.761905 -1.000000
v 12.380952 -4.761905 -1.000000
v 14.285713 -4.761905 -1.000000
v 16.190475 -4.761905 -1.000000
v 18.095238 -4.761905 -1.000000
v -18.095238 -2.857143 -1.000000
v -16.190475 -2.857143 -1.000000
v -14.285715 -2.857143 -1.000000
v -12.380953 -2.857143 -1.000000
v -10.476191 -2.857143 -1.000000
v -8.571429 -2.857143 -1.000000
v -6.666667 -2.857143 -1.000000
v -4.761905 -2.857143 -1.000000
v -2.857143 -2.857143 -1.000000
v -0.952381 -2.857143 -1.000000
v 0.952381 -2.857143 -1.000000
v 2.857143 -2.857143 -1.000000
v 4.761905 -2.857143 -1.000000
v 6.666666 -2.857143 -1.000000
v 8.571428 -2.857143 -1.000000
v 10.476190 -2.857143 -1.000000
v 12.380952 -2.857143 -1.000000
v 14.285713 -2.857143 -1.000000
v 16.190475 -2.857143 -1.000000
v 18.095238 -2.857143 -1.000000
v -18.095238 -0.952381 -1.000000
v -16.190475 -0.952381 -1.000000
v -14.285715 -0.952381 -1.000000
v -12.380953 -0.952381 -1.000000
v -10.476191 -0.952381 -1.000000
v -8.571429 -0.952381 -1.000000
v -6.666667 -0.952381 -1.000000
v -4.761905 -0.952381 -1.000000
v -2.857143 -0.952381 -1.000000
v -0.952381 -0.952381 -1.000000
v 0.952381 -0.952381 -1.000000
v 2.857143 -0.952381 -1.000000
v 4.761905 -0.952381 -1.000000
v 6.666666 -0.952381 -1.000000
v 8.571428 -0.952381 -1.000000
v 10.476190 -0.952381 -1.000000
v 12.380952 -0.952381 -1.000000
v 14.285713 -0.952381 -1.000000
v 16.190475 -0.952381 -1.000000
v 18.095238 -0.952381 -1.000000
v -18.095238 0.952381 -1.000000
v -16.190475 0.952381 -1.000000
v -14.285715 0.952381 -1.000000
v -12.380953 0.952381 -1.000000
v -10.476191 0.952381 -1.000000
v -8.571429 0.952381 -1.000000
v -6.666667 0.952381 -1.000000
v -4.761905 0.952381 -1.000000
v -2.857143 0.952381 -1.000000
v -0.952381 0.952381 -1.000000
v 0.952381 0.952381 -1.000000
v 2.857143 0.952381 -1.000000
v 4.761905 0.952381 -1.000000
v 6.666666 0.952381 -1.000000
v 8.571428 0.952381 -1.000000
v 10.476190 0.952381 -1.000000
v 12.380952 0.952381 -1.000000
v 14.285713 0.952381 -1.000000
v 16.190475 0.952381 -1.000000
v 18.095238 0.952381 -1.000000
v -18.095238 2.857143 -1.000000
v -16.190475 2.857143 -1.000000
v -14.285715 2.857143 -1.000000
v -12.380953 2.857143 -1.000000
v -10.476191 2.857143 -1.000000
v -8.571429 2.857143 -1.000000
v -6.666667 2.857143 -1.000000
v -4.761905 2.857143 -1.000000
v -2.857143 2.857143 -1.000000
v -0.952381 2.857143 -1.000000
v 0.952381 2.857143 -1.000000
v 2.857143 2.857143 -1.000000
v 4.761905 2.857143 -1.000000
v 6.666666 2.857143 -1.000000
v 8.571428 2.857143 -1.000000
v 10.476190 2.857143 -1.000000
v 12.380952 2.857143 -1.000000
v 14.285713 2.857143 -1.000000
v 16.190475 2.857143 -1.000000
v 18.095238 2.857143 -1.000000
v -18.095238 4.761905 -1.000000
v -16.190475 4.761905 -1.000000
v -14.285715 4.761905 -1.000000
v -12.380953 4.761905 -1.000000
v -10.476191 4.761905 -1.000000
v -8.571429 4.761905 -1.000000
v -6.666667 4.761905 -1.000000
v -4.761905 4.761905 -1.000000
v -2.857143 4.761905 -1.000000
v -0.952381 4.761905 -1.000000
v 0.952381 4.761905 -1.000000
v 2.857143 4.761905 -1.000000
v 4.761905 4.761905 -1.000000
v 6.666666 4.761905 -1.000000
v 8.571428 4.761905 -1.000000
v 10.476190 4.761905 -1.000000
v 12.380952 4.761905 -1.000000
v 14.285713 4.761905 -1.000000
v 16.190475 4.761905 -1.000000
v 18.095238 4.761905 -1.000000
v -18.095238 6.666667 -1.000000
v -16.190475 6.666667 -1.000000
v -14.285715 6.666667 -1.000000
v -12.380953 6.666667 -1.000000
v -10.476191 6.666667 -1.000000
v -8.571429 6.666667 -1.000000
v -6.666667 6.666667 -1.000000
v -4.761905 6.666667 -1.000000
v -2.857143 6.666667 -1.000000
v -0.952381 6.666667 -1.000000
v 0.952381 6.666667 -1.000000
v 2.857143 6.666667 -1.000000
v 4.761905 6.666667 -1.000000
v 6.666666 6.666667 -1.000000
v 8.571428 6.666667 -1.000000
v 10.476190 6.666667 -1.000000
v 12.380952 6.666667 -1.000000
v 14.285713 6.666667 -1.000000
v 16.190475 6.666667 -1.000000
v 18.095238 6.666667 -1.000000
v -18.095238 8.571429 -1.000000
v -16.190475 8.571429 -1.000000
v -14.285715 8.571429 -1.000000
v -12.380953 8.571429 -1.000000
v -10.476191 8.571429 -1.000000
v -8.571429 8.571429 -1.000000
v -6.666667 8.571429 -1.000000
v -4.761905 8.571429 -1.000000
v -2.857143 8.571429 -1.000000
v -0.952381 8.571429 -1.000000
v 0.952381 8.571429 -1.000000
v 2.857143 8.571429 -1.000000
v 4.761905 8.571429 -1.000000
v 6.666666 8.571429 -1.000000
v 8.571428 8.571429 -1.000000
v 10.476190 8.571429 -1.000000
v 12.380952 8.571429 -1.000000
v 14.285713 8.571429 -1.000000
v 16.190475 8.571429 -1.000000
v 18.095238 8.571429 -1.000000
v -18.095238 10.476191 -1.000000
v -16.190475 10.476191 -1.000000
v -14.285715 10.476191 -1.000000
v -12.380953 10.476191 -1.000000
v -10.476191 10.476191 -1.000000
v -8.571429 10.476191 -1.000000
v -6.666667 10.476191 -1.000000
v -4.761905 10.476191 -1.000000
v -2.857143 10.476191 -1.000000
v -0.952381 10.476191 -1.000000
v 0.952381 10.476191 -1.000000
v 2.857143 10.476191 -1.000000
v 4.761905 10.476191 -1.000000
v 6.666666 10.476191 -1.000000
v 8.571428 10.476191 -1.000000
v 10.476190 10.476191 -1.000000
v 12.380952 10.476191 -1.000000
v 14.285713 10.476191 -1.000000
v 16.190475 10.476191 -1.000000
v 18.095238 10.476191 -1.000000
v -18.095238 12.380953 -1.000000
v -16.190475 12.380953 -1.000000
v -14.285715 12.380953 -1.000000
v -12.380953 12.380953 -1.000000
v -10.476191 12.380953 -1.000000
v -8.571429 12.380953 -1.000000
v -6.666667 12.380953 -1.000000
v -4.761905 12.380953 -1.000000
v -2.857143 12.380953 -1.000000
v -0.952381 12.380953 -1.000000
v 0.952381 12.380953 -1.000000
v 2.857143 12.380953 -1.000000
v 4.761905 12.380953 -1.000000
v 6.666666 12.380953 -1.000000
v 8.571428 12.380953 -1.000000
v 10.476190 12.380953 -1.000000
v 12.380952 12.380953 -1.000000
v 14.285713 12.380953 -1.000000
v 16.190475 12.380953 -1.000000
v 18.095238 12.380953 -1.000000
v -18.095238 14.285715 -1.000000
v -16.190475 14.285715 -1.000000
v -14.285715 14.285715 -1.000000
v -12.380953 14.285715 -1.000000
v -10.476191 14.285715 -1.000000
v -8.571429 14.285715 -1.000000
v -6.666667 14.285715 -1.000000
v -4.761905 14.285715 -1.000000
v -2.857143 14.285715 -1.000000
v -0.952381 14.285715 -1.000000
v 0.952381 14.285715 -1.000000
v 2.857143 14.285715 -1.000000
v 4.761905 14.285715 -1.000000
v 6.666666 14.285715 -1.000000
v 8.571428 14.285715 -1.000000
v 10.476190 14.285715 -1.000000
v 12.380952 14.285715 -1.000000
v 14.285713 14.285715 -1.000000
v 16.190475 14.285715 -1.000000
v 18.095238 14.285715 -1.000000
v -18.095238 16.190475 -1.000000
v -16.190475 16.190475 -1.000000
v -14.285715 16.190475 -1.000000
v -12.380953 16.190475 -1.000000
v -10.476191 16.190475 -1.000000
v -8.571429 16.190475 -1.000000
v -6.666667 16.190475 -1.000000
v -4.761905 16.190475 -1.000000
v -2.857143 16.190475 -1.000000
v -0.952381 16.190475 -1.000000
v 0.952381 16.190475 -1.000000
v 2.857143 16.190475 -1.000000
v 4.761905 16.190475 -1.000000
v 6.666666 16.190475 -1.000000
v 8.571428 16.190475 -1.000000
v 10.476190 16.190475 -1.000000
v 12.380952 16.190475 -1.000000
v 14.285713 16.190475 -1.000000
v 16.190475 16.190475 -1.000000
v 18.095238 16.190475 -1.000000
v -18.095238 18.095238 -1.000000
v -16.190475 18.095238 -1.000000
v -14.285715 18.095238 -1.000000
v -12.380953 18.095238 -1.000000
v -10.476191 18.095238 -1.000000
v -8.571429 18.095238 -1.000000
v -6.666667 18.095238 -1.000000
v -4.761905 18.095238 -1.000000
v -2.857143 18.095238 -1.000000
v -0.952381 18.095238 -1.000000
v 0.952381 18.095238 -1.000000
v 2.857143 18.095238 -1.000000
v 4.761905 18.095238 -1.000000
v 6.666666 18.095238 -1.000000
v 8.571428 18.095238 -1.000000
v 10.476190 18.095238 -1.000000
v 12.380952 18.095238 -1.000000
v 14.285713 18.095238 -1.000000
v 16.190475 18.095238 -1.000000
v 18.095238 18.095238 -1.000000
s off
f 2 29 28
f 128 49 968
f 8 69 49
f 168 28 568
f 7 148 89
f 4 168 109
f 188 1 129
f 208 9 188
f 228 10 208
f 248 11 228
f 268 12 248
f 288 13 268
f 308 14 288
f 308 16 15
f 328 17 16
f 368 17 348
f 388 18 368
f 408 19 388
f 428 20 408
f 448 21 428
f 468 22 448
f 468 24 23
f 488 25 24
f 508 26 25
f 528 27 26
f 548 28 27
f 68 5 7
f 67 88 68
f 66 87 67
f 65 86 66
f 64 85 65
f 63 84 64
f 62 83 63
f 61 82 62
f 60 81 61
f 59 80 60
f 58 79 59
f 57 78 58
f 56 77 57
f 55 76 56
f 54 75 55
f 53 74 54
f 52 73 53
f 51 72 52
f 50 71 51
f 49 70 50
f 588 7 89
f 608 68 588
f 628 67 608
f 648 66 628
f 668 65 648
f 688 64 668
f 708 63 688
f 728 62 708
f 748 61 728
f 768 60 748
f 788 59 768
f 808 58 788
f 828 57 808
f 848 56 828
f 868 55 848
f 888 54 868
f 908 53 888
f 928 52 908
f 948 51 928
f 968 50 948
f 9 3 1
f 10 48 9
f 11 47 10
f 12 46 11
f 13 45 12
f 14 44 13
f 15 43 14
f 16 42 15
f 17 41 16
f 18 40 17
f 19 39 18
f 20 38 19
f 21 37 20
f 22 36 21
f 23 35 22
f 24 34 23
f 25 33 24
f 26 32 25
f 27 31 26
f 28 30 27
f 29 929 30
f 949 930 929
f 950 931 930
f 951 932 931
f 952 933 932
f 953 934 933
f 954 935 934
f 955 936 935
f 956 937 936
f 957 938 937
f 958 939 938
f 959 940 939
f 960 941 940
f 961 942 941
f 962 943 942
f 963 944 943
f 964 945 944
f 965 946 945
f 966 947 946
f 967 948 947
f 30 909 31
f 929 910 909
f 930 911 910
f 931 912 911
f 932 913 912
f 933 914 913
f 934 915 914
f 935 916 915
f 936 917 916
f 937 918 917
f 938 919 918
f 939 920 919
f 940 921 920
f 941 922 921
f 942 923 922
f 943 924 923
f 944 925 924
f 945 926 925
f 946 927 926
f 947 928 927
f 31 889 32
f 909 890 889
f 910 891 890
f 911 892 891
f 912 893 892
f 913 894 893
f 914 895 894
f 915 896 895
f 916 897 896
f 917 898 897
f 918 899 898
f 919 900 899
f 920 901 900
f 921 902 901
f 922 903 902
f 923 904 903
f 924 905 904
f 925 906 905
f 926 907 906
f 927 908 907
f 32 869 33
f 889 870 869
f 890 871 870
f 891 872 871
f 892 873 872
f 893 874 873
f 894 875 874
f 895 876 875
f 896 877 876
f 897 878 877
f 898 879 878
f 899 880 879
f 900 881 880
f 901 882 881
f 902 883 882
f 903 884 883
f 904 885 884
f 905 886 885
f 906 887 886
f 907 888 887
f 33 849 34
f 869 850 849
f 870 851 850
f 871 852 851
f 872 853 852
f 873 854 853
f 874 855 854
f 875 856 855
f 876 857 856
f 877 858 857
f 878 859 858
f 879 860 859
f 880 861 860
f 881 862 861
f 882 863 862
f 883 864 863
f 884 865 864
f 885 866 865
f 886 867 866
f 887 868 867
f 34 829 35
f 849 830 829
f 850 831 830
f 851 832 831
f 852 833 832
f 853 834 833
f 854 835 834
f 855 836 835
f 856 837 836
f 857 838 837
f 858 839 838
f 859 840 839
f 860 841 840
f 861 842 841
f 862 843 842
f 863 844 843
f 864 845 844
f 865 846 845
f 866 847 846
f 867 848 847
f 35 809 36
f 829 810 809
f 830 811 810
f 831 812 811
f 832 813 812
f 833 814 813
f 834 815 814
f 835 816 815
f 836 817 816
f 837 818 817
f 838 819 818
f 839 820 819
f 840 821 820
f 841 822 821
f 842 823 822
f 843 824 823
f 844 825 824
f 845 826 825
f 846 827 826
f 847 828 827
f 36 789 37
f 809 790 789
f 810 791 790
f 811 792 791
f 812 793 792
f 813 794 793
f 814 795 794
f 815 796 795
f 816 797 796
f 817 798 797
f 818 799 798
f 819 800 799
f 820 801 800
f 821 802 801
f 822 803 802
f 823 804 803
f 824 805 804
f 825 806 805
f 826 807 806
f 827 808 807
f 37 769 38
f 789 770 769
f 790 771 770
f 791 772 771
f 792 773 772
f 793 774 773
f 794 775 774
f 795 776 775
f 796 777 776
f 797 778 777
f 798 779 778
f 799 780 779
f 800 781 780
f 801 782 781
f 802 783 782
f 803 784 783
f 804 785 784
f 805 786 785
f 806 787 786
f 807 788 787
f 38 749 39
f 769 750 749
f 770 751 750
f 771 752 751
f 772 753 752
f 773 754 753
f 774 755 754
f 775 756 755
f 776 757 756
f 777 758 757
f 778 759 758
f 779 760 759
f 780 761 760
f 781 762 761
f 782 763 762
f 783 764 763
f 784 765 764
f 785 766 765
f 786 767 766
f 787 768 767
f 39 729 40
f 749 730 729
f 750 731 730
f 751 732 731
f 752 733 732
f 753 734 733
f 754 735 734
f 755 736 735
f 756 737 736
f 757 738 737
f 758 739 738
f 759 740 739
f 760 741 740
f 761 742 741
f 762 743 742
f 763 744 743
f 764 745 744
f 765 746 745
f 766 747 746
f 767 748 747
f 40 709 41
f 729 710 709
f 730 711 710
f 731 712 711
f 732 713 712
f 733 714 713
f 734 715 714
f 735 716 715
f 736 717 716
f 737 718 717
f 738 719 718
f 739 720 719
f 740 721 720
f 741 722 721
f 742 723 722
f 743 724 723
f 744 725 724
f 745 726 725
f 746 727 726
f 747 728 727
f 41 689 42
f 709 690 689
f 710 691 690
f 711 692 691
f 712 693 692
f 713 694 693
f 714 695 694
f 715 696 695
f 716 697 696
f 717 698 697
f 718 699 698
f 719 700 699
f 720 701 700
f 721 702 701
f 722 703 702
f 723 704 703
f 724 705 704
f 725 706 705
f 726 707 706
f 727 708 707
f 42 669 43
f 689 670 669
f 690 671 670
f 691 672 671
f 692 673 672
f 693 674 673
f 694 675 674
f 695 676 675
f 696 677 676
f 697 678 677
f 698 679 678
f 699 680 679
f 700 681 680
f 701 682 681
f 702 683 682
f 703 684 683
f 704 685 684
f 705 686 685
f 706 687 686
f 707 688 687
f 43 649 44
f 669 650 649
f 670 651 650
f 671 652 651
f 672 653 652
f 673 654 653
f 674 655 654
f 675 656 655
f 676 657 656
f 677 658 657
f 678 659 658
f 679 660 659
f 680 661 660
f 681 662 661
f 682 663 662
f 683 664 663
f 684 665 664
f 685 666 665
f 686 667 666
f 687 668 667
f 44 629 45
f 649 630 629
f 650 631 630
f 651 632 631
f 652 633 632
f 653 634 633
f 654 635 634
f 655 636 635
f 656 637 636
f 657 638 637
f 658 639 638
f 659 640 639
f 660 641 640
f 661 642 641
f 662 643 642
f 663 644 643
f 664 645 644
f 665 646 645
f 666 647 646
f 667 648 647
f 45 609 46
f 629 610 609
f 630 611 610
f 631 612 611
f 632 613 612
f 633 614 613
f 634 615 614
f 635 616 615
f 636 617 616
f 637 618 617
f 638 619 618
f 639 620 619
f 640 621 620
f 641 622 621
f 642 623 622
f 643 624 623
f 644 625 624
f 645 626 625
f 646 627 626
f 647 628 627
f 46 589 47
f 609 590 589
f 610 591 590
f 611 592 591
f 612 593 592
f 613 594 593
f 614 595 594
f 615 596 595
f 616 597 596
f 617 598 597
f 618 599 598
f 619 600 599
f 620 601 600
f 621 602 601
f 622 603 602
f 623 604 603
f 624 605 604
f 625 606 605
f 626 607 606
f 627 608 607
f 47 569 48
f 589 570 569
f 590 571 570
f 591 572 571
f 592 573 572
f 593 574 573
f 594 575 574
f 595 576 575
f 596 577 576
f 597 578 577
f 598 579 578
f 599 580 579
f 600 581 580
f 601 582 581
f 602 583 582
f 603 584 583
f 604 585 584
f 605 586 585
f 606 587 586
f 607 588 587
f 48 108 3
f 108 570 107
f 107 571 106
f 106 572 105
f 105 573 104
f 104 574 103
f 103 575 102
f 102 576 101
f 101 577 100
f 100 578 99
f 99 579 98
f 98 580 97
f 97 581 96
f 96 582 95
f 95 583 94
f 94 584 93
f 93 585 92
f 92 586 91
f 91 587 90
f 90 588 89
f 69 529 70
f 549 530 529
f 550 531 530
f 551 532 531
f 552 533 532
f 553 534 533
f 554 535 534
f 555 536 535
f 556 537 536
f 557 538 537
f 558 539 538
f 559 540 539
f 560 541 540
f 561 542 541
f 562 543 542
f 563 544 543
f 564 545 544
f 565 546 545
f 566 547 546
f 567 548 547
f 70 509 71
f 529 510 509
f 530 511 510
f 531 512 511
f 532 513 512
f 533 514 513
f 534 515 514
f 535 516 515
f 536 517 516
f 537 518 517
f 538 519 518
f 539 520 519
f 540 521 520
f 541 522 521
f 542 523 522
f 543 524 523
f 544 525 524
f 545 526 525
f 546 527 526
f 547 528 527
f 71 489 72
f 509 490 489
f 510 491 490
f 511 492 491
f 512 493 492
f 513 494 493
f 514 495 494
f 515 496 495
f 516 497 496
f 517 498 497
f 518 499 498
f 519 500 499
f 520 501 500
f 521 502 501
f 522 503 502
f 523 504 503
f 524 505 504
f 525 506 505
f 526 507 506
f 527 508 507
f 72 469 73
f 489 470 469
f 490 471 470
f 491 472 471
f 492 473 472
f 493 474 473
f 494 475 474
f 495 476 475
f 496 477 476
f 497 478 477
f 498 479 478
f 499 480 479
f 500 481 480
f 501 482 481
f 502 483 482
f 503 484 483
f 504 485 484
f 505 486 485
f 506 487 486
f 507 488 487
f 73 449 74
f 469 450 449
f 470 451 450
f 471 452 451
f 472 453 452
f 473 454 453
f 474 455 454
f 475 456 455
f 476 457 456
f 477 458 457
f 478 459 458
f 479 460 459
f 480 461 460
f 481 462 461
f 482 463 462
f 483 464 463
f 484 465 464
f 485 466 465
f 466 487 467
f 467 488 468
f 74 429 75
f 449 430 429
f 450 431 430
f 451 432 431
f 452 433 432
f 453 434 433
f 454 435 434
f 455 436 435
f 456 437 436
f 457 438 437
f 458 439 438
f 459 440 439
f 460 441 440
f 461 442 441
f 462 443 442
f 463 444 443
f 464 445 444
f 465 446 445
f 446 467 447
f 447 468 448
f 75 409 76
f 429 410 409
f 430 411 410
f 431 412 411
f 432 413 412
f 433 414 413
f 434 415 414
f 435 416 415
f 436 417 416
f 437 418 417
f 438 419 418
f 439 420 419
f 440 421 420
f 441 422 421
f 442 423 422
f 423 444 424
f 444 425 424
f 445 426 425
f 426 447 427
f 427 448 428
f 76 389 77
f 409 390 389
f 410 391 390
f 411 392 391
f 412 393 392
f 413 394 393
f 414 395 394
f 415 396 395
f 416 397 396
f 417 398 397
f 418 399 398
f 419 400 399
f 420 401 400
f 421 402 401
f 422 403 402
f 423 404 403
f 424 405 404
f 425 406 405
f 426 407 406
f 407 428 408
f 77 369 78
f 389 370 369
f 390 371 370
f 391 372 371
f 392 373 372
f 393 374 373
f 394 375 374
f 395 376 375
f 396 377 376
f 397 378 377
f 398 379 378
f 399 380 379
f 400 381 380
f 401 382 381
f 402 383 382
f 403 384 383
f 404 385 384
f 405 386 385
f 406 387 386
f 387 408 388
f 78 349 79
f 369 350 349
f 370 351 350
f 371 352 351
f 372 353 352
f 373 354 353
f 374 355 354
f 375 356 355
f 376 357 356
f 377 358 357
f 378 359 358
f 379 360 359
f 380 361 360
f 381 362 361
f 382 363 362
f 383 364 363
f 384 365 364
f 385 366 365
f 386 367 366
f 387 368 367
f 79 329 80
f 349 330 329
f 350 331 330
f 351 332 331
f 352 333 332
f 353 334 333
f 354 335 334
f 355 336 335
f 356 337 336
f 357 338 337
f 358 339 338
f 359 340 339
f 360 341 340
f 361 342 341
f 362 343 342
f 363 344 343
f 364 345 344
f 365 346 345
f 346 367 347
f 347 368 348
f 80 309 81
f 329 310 309
f 330 311 310
f 331 312 311
f 332 313 312
f 333 314 313
f 334 315 314
f 335 316 315
f 336 317 316
f 337 318 317
f 338 319 318
f 339 320 319
f 340 321 320
f 341 322 321
f 342 323 322
f 343 324 323
f 324 345 325
f 325 346 326
f 326 347 327
f 327 348 328
f 81 289 82
f 309 290 289
f 310 291 290
f 311 292 291
f 312 293 292
f 313 294 293
f 314 295 294
f 315 296 295
f 316 297 296
f 317 298 297
f 318 299 298
f 319 300 299
f 320 301 300
f 321 302 301
f 322 303 302
f 323 304 303
f 304 325 305
f 305 326 306
f 306 327 307
f 307 328 308
f 82 269 83
f 289 270 269
f 290 271 270
f 291 272 271
f 292 273 272
f 293 274 273
f 294 275 274
f 295 276 275
f 296 277 276
f 297 278 277
f 298 279 278
f 299 280 279
f 300 281 280
f 301 282 281
f 302 283 282
f 303 284 283
f 304 285 284
f 305 286 285
f 286 307 287
f 287 308 288
f 83 249 84
f 269 250 249
f 270 251 250
f 271 252 251
f 272 253 252
f 273 254 253
f 274 255 254
f 275 256 255
f 276 257 256
f 277 258 257
f 278 259 258
f 279 260 259
f 280 261 260
f 281 262 261
f 282 263 262
f 283 264 263
f 284 265 264
f 285 266 265
f 266 287 267
f 267 288 268
f 84 229 85
f 249 230 229
f 250 231 230
f 251 232 231
f 252 233 232
f 253 234 233
f 254 235 234
f 255 236 235
f 256 237 236
f 257 238 237
f 258 239 238
f 259 240 239
f 260 241 240
f 261 242 241
f 262 243 242
f 263 244 243
f 264 245 244
f 265 246 245
f 266 247 246
f 247 268 248
f 85 209 86
f 229 210 209
f 230 211 210
f 231 212 211
f 232 213 212
f 233 214 213
f 234 215 214
f 235 216 215
f 236 217 216
f 237 218 217
f 238 219 218
f 239 220 219
f 240 221 220
f 241 222 221
f 242 223 222
f 243 224 223
f 244 225 224
f 245 226 225
f 246 227 226
f 227 248 228
f 86 189 87
f 209 190 189
f 210 191 190
f 211 192 191
f 212 193 192
f 213 194 193
f 214 195 194
f 215 196 195
f 216 197 196
f 217 198 197
f 218 199 198
f 219 200 199
f 220 201 200
f 221 202 201
f 222 203 202
f 223 204 203
f 224 205 204
f 225 206 205
f 226 207 206
f 207 228 208
f 87 169 88
f 189 170 169
f 190 171 170
f 191 172 171
f 192 173 172
f 193 174 173
f 194 175 174
f 195 176 175
f 196 177 176
f 197 178 177
f 198 179 178
f 199 180 179
f 200 181 180
f 201 182 181
f 202 183 182
f 203 184 183
f 204 185 184
f 205 186 185
f 206 187 186
f 207 188 187
f 88 148 5
f 148 170 147
f 147 171 146
f 146 172 145
f 145 173 144
f 144 174 143
f 143 175 142
f 142 176 141
f 141 177 140
f 140 178 139
f 139 179 138
f 138 180 137
f 137 181 136
f 136 182 135
f 135 183 134
f 134 184 133
f 133 185 132
f 132 186 131
f 131 187 130
f 130 188 129
f 128 6 8
f 127 149 128
f 126 150 127
f 125 151 126
f 124 152 125
f 123 153 124
f 122 154 123
f 121 155 122
f 120 156 121
f 119 157 120
f 118 158 119
f 117 159 118
f 116 160 117
f 115 161 116
f 114 162 115
f 113 163 114
f 112 164 113
f 111 165 112
f 110 166 111
f 109 167 110
f 108 1 3
f 107 129 108
f 106 130 107
f 105 131 106
f 104 132 105
f 103 133 104
f 102 134 103
f 101 135 102
f 100 136 101
f 99 137 100
f 98 138 99
f 97 139 98
f 96 140 97
f 95 141 96
f 94 142 95
f 93 143 94
f 92 144 93
f 91 145 92
f 90 146 91
f 89 147 90
f 6 549 69
f 149 550 549
f 150 551 550
f 151 552 551
f 152 553 552
f 153 554 553
f 154 555 554
f 155 556 555
f 156 557 556
f 157 558 557
f 158 559 558
f 159 560 559
f 160 561 560
f 161 562 561
f 162 563 562
f 163 564 563
f 164 565 564
f 165 566 565
f 166 567 566
f 167 568 567
f 4 949 29
f 109 950 949
f 110 951 950
f 111 952 951
f 112 953 952
f 113 954 953
f 114 955 954
f 115 956 955
f 116 957 956
f 117 958 957
f 118 959 958
f 119 960 959
f 120 961 960
f 121 962 961
f 122 963 962
f 123 964 963
f 124 965 964
f 125 966 965
f 126 967 966
f 127 968 967
f 2 4 29
f 128 8 49
f 8 6 69
f 168 2 28
f 7 5 148
f 4 2 168
f 188 9 1
f 208 10 9
f 228 11 10
f 248 12 11
f 268 13 12
f 288 14 13
f 308 15 14
f 308 328 16
f 328 348 17
f 368 18 17
f 388 19 18
f 408 20 19
f 428 21 20
f 448 22 21
f 468 23 22
f 468 488 24
f 488 508 25
f 508 528 26
f 528 548 27
f 548 568 28
f 68 88 5
f 67 87 88
f 66 86 87
f 65 85 86
f 64 84 85
f 63 83 84
f 62 82 83
f 61 81 82
f 60 80 81
f 59 79 80
f 58 78 79
f 57 77 78
f 56 76 77
f 55 75 76
f 54 74 75
f 53 73 74
f 52 72 73
f 51 71 72
f 50 70 71
f 49 69 70
f 588 68 7
f 608 67 68
f 628 66 67
f 648 65 66
f 668 64 65
f 688 63 64
f 708 62 63
f 728 61 62
f 748 60 61
f 768 59 60
f 788 58 59
f 808 57 58
f 828 56 57
f 848 55 56
f 868 54 55
f 888 53 54
f 908 52 53
f 928 51 52
f 948 50 51
f 968 49 50
f 9 48 3
f 10 47 48
f 11 46 47
f 12 45 46
f 13 44 45
f 14 43 44
f 15 42 43
f 16 41 42
f 17 40 41
f 18 39 40
f 19 38 39
f 20 37 38
f 21 36 37
f 22 35 36
f 23 34 35
f 24 33 34
f 25 32 33
f 26 31 32
f 27 30 31
f 28 29 30
f 29 949 929
f 949 950 930
f 950 951 931
f 951 952 932
f 952 953 933
f 953 954 934
f 954 955 935
f 955 956 936
f 956 957 937
f 957 958 938
f 958 959 939
f 959 960 940
f 960 961 941
f 961 962 942
f 962 963 943
f 963 964 944
f 964 965 945
f 965 966 946
f 966 967 947
f 967 968 948
f 30 929 909
f 929 930 910
f 930 931 911
f 931 932 912
f 932 933 913
f 933 934 914
f 934 935 915
f 935 936 916
f 936 937 917
f 937 938 918
f 938 939 919
f 939 940 920
f 940 941 921
f 941 942 922
f 942 943 923
f 943 944 924
f 944 945 925
f 945 946 926
f 946 947 927
f 947 948 928
f 31 909 889
f 909 910 890
f 910 911 891
f 911 912 892
f 912 913 893
f 913 914 894
f 914 915 895
f 915 916 896
f 916 917 897
f 917 918 898
f 918 919 899
f 919 920 900
f 920 921 901
f 921 922 902
f 922 923 903
f 923 924 904
f 924 925 905
f 925 926 906
f 926 927 907
f 927 928 908
f 32 889 869
f 889 890 870
f 890 891 871
f 891 892 872
f 892 893 873
f 893 894 874
f 894 895 875
f 895 896 876
f 896 897 877
f 897 898 878
f 898 899 879
f 899 900 880
f 900 901 881
f 901 902 882
f 902 903 883
f 903 904 884
f 904 905 885
f 905 906 886
f 906 907 887
f 907 908 888
f 33 869 849
f 869 870 850
f 870 871 851
f 871 872 852
f 872 873 853
f 873 874 854
f 874 875 855
f 875 876 856
f 876 877 857
f 877 878 858
f 878 879 859
f 879 880 860
f 880 881 861
f 881 882 862
f 882 883 863
f 883 884 864
f 884 885 865
f 885 886 866
f 886 887 867
f 887 888 868
f 34 849 829
f 849 850 830
f 850 851 831
f 851 852 832
f 852 853 833
f 853 854 834
f 854 855 835
f 855 856 836
f 856 857 837
f 857 858 838
f 858 859 839
f 859 860 840
f 860 861 841
f 861 862 842
f 862 863 843
f 863 864 844
f 864 865 845
f 865 866 846
f 866 867 847
f 867 868 848
f 35 829 809
f 829 830 810
f 830 831 811
f 831 832 812
f 832 833 813
f 833 834 814
f 834 835 815
f 835 836 816
f 836 837 817
f 837 838 818
f 838 839 819
f 839 840 820
f 840 841 821
f 841 842 822
f 842 843 823
f 843 844 824
f 844 845 825
f 845 846 826
f 846 847 827
f 847 848 828
f 36 809 789
f 809 810 790
f 810 811 791
f 811 812 792
f 812 813 793
f 813 814 794
f 814 815 795
f 815 816 796
f 816 817 797
f 817 818 798
f 818 819 799
f 819 820 800
f 820 821 801
f 821 822 802
f 822 823 803
f 823 824 804
f 824 825 805
f 825 826 806
f 826 827 807
f 827 828 808
f 37 789 769
f 789 790 770
f 790 791 771
f 791 792 772
f 792 793 773
f 793 794 774
f 794 795 775
f 795 796 776
f 796 797 777
f 797 798 778
f 798 799 779
f 799 800 780
f 800 801 781
f 801 802 782
f 802 803 783
f 803 804 784
f 804 805 785
f 805 806 786
f 806 807 787
f 807 808 788
f 38 769 749
f 769 770 750
f 770 771 751
f 771 772 752
f 772 773 753
f 773 774 754
f 774 775 755
f 775 776 756
f 776 777 757
f 777 778 758
f 778 779 759
f 779 780 760
f 780 781 761
f 781 782 762
f 782 783 763
f 783 784 764
f 784 785 765
f 785 786 766
f 786 787 767
f 787 788 768
f 39 749 729
f 749 750 730
f 750 751 731
f 751 752 732
f 752 753 733
f 753 754 734
f 754 755 735
f 755 756 736
f 756 757 737
f 757 758 738
f 758 759 739
f 759 760 740
f 760 761 741
f 761 762 742
f 762 763 743
f 763 764 744
f 764 765 745
f 765 766 746
f 766 767 747
f 767 768 748
f 40 729 709
f 729 730 710
f 730 731 711
f 731 732 712
f 732 733 713
f 733 734 714
f 734 735 715
f 735 736 716
f 736 737 717
f 737 738 718
f 738 739 719
f 739 740 720
f 740 741 721
f 741 742 722
f 742 743 723
f 743 744 724
f 744 745 725
f 745 746 726
f 746 747 727
f 747 748 728
f 41 709 689
f 709 710 690
f 710 711 691
f 711 712 692
f 712 713 693
f 713 714 694
f 714 715 695
f 715 716 696
f 716 717 697
f 717 718 698
f 718 719 699
f 719 720 700
f 720 721 701
f 721 722 702
f 722 723 703
f 723 724 704
f 724 725 705
f 725 726 706
f 726 727 707
f 727 728 708
f 42 689 669
f 689 690 670
f 690 691 671
f 691 692 672
f 692 693 673
f 693 694 674
f 694 695 675
f 695 696 676
f 696 697 677
f 697 698 678
f 698 699 679
f 699 700 680
f 700 701 681
f 701 702 682
f 702 703 683
f 703 704 684
f 704 705 685
f 705 706 686
f 706 707 687
f 707 708 688
f 43 669 649
f 669 670 650
f 670 671 651
f 671 672 652
f 672 673 653
f 673 674 654
f 674 675 655
f 675 676 656
f 676 677 657
f 677 678 658
f 678 679 659
f 679 680 660
f 680 681 661
f 681 682 662
f 682 683 663
f 683 684 664
f 684 685 665
f 685 686 666
f 686 687 667
f 687 688 668
f 44 649 629
f 649 650 630
f 650 651 631
f 651 652 632
f 652 653 633
f 653 654 634
f 654 655 635
f 655 656 636
f 656 657 637
f 657 658 638
f 658 659 639
f 659 660 640
f 660 661 641
f 661 662 642
f 662 663 643
f 663 664 644
f 664 665 645
f 665 666 646
f 666 667 647
f 667 668 648
f 45 629 609
f 629 630 610
f 630 631 611
f 631 632 612
f 632 633 613
f 633 634 614
f 634 635 615
f 635 636 616
f 636 637 617
f 637 638 618
f 638 639 619
f 639 640 620
f 640 641 621
f 641 642 622
f 642 643 623
f 643 644 624
f 644 645 625
f 645 646 626
f 646 647 627
f 647 648 628
f 46 609 589
f 609 610 590
f 610 611 591
f 611 612 592
f 612 613 593
f 613 614 594
f 614 615 595
f 615 616 596
f 616 617 597
f 617 618 598
f 618 619 599
f 619 620 600
f 620 621 601
f 621 622 602
f 622 623 603
f 623 624 604
f 624 625 605
f 625 626 606
f 626 627 607
f 627 628 608
f 47 589 569
f 589 590 570
f 590 591 571
f 591 592 572
f 592 593 573
f 593 594 574
f 594 595 575
f 595 596 576
f 596 597 577
f 597 598 578
f 598 599 579
f 599 600 580
f 600 601 581
f 601 602 582
f 602 603 583
f 603 604 584
f 604 605 585
f 605 606 586
f 606 607 587
f 607 608 588
f 48 569 108
f 108 569 570
f 107 570 571
f 106 571 572
f 105 572 573
f 104 573 574
f 103 574 575
f 102 575 576
f 101 576 577
f 100 577 578
f 99 578 579
f 98 579 580
f 97 580 581
f 96 581 582
f 95 582 583
f 94 583 584
f 93 584 585
f 92 585 586
f 91 586 587
f 90 587 588
f 69 549 529
f 549 550 530
f 550 551 531
f 551 552 532
f 552 553 533
f 553 554 534
f 554 555 535
f 555 556 536
f 556 557 537
f 557 558 538
f 558 559 539
f 559 560 540
f 560 561 541
f 561 562 542
f 562 563 543
f 563 564 544
f 564 565 545
f 565 566 546
f 566 567 547
f 567 568 548
f 70 529 509
f 529 530 510
f 530 531 511
f 531 532 512
f 532 533 513
f 533 534 514
f 534 535 515
f 535 536 516
f 536 537 517
f 537 538 518
f 538 539 519
f 539 540 520
f 540 541 521
f 541 542 522
f 542 543 523
f 543 544 524
f 544 545 525
f 545 546 526
f 546 547 527
f 547 548 528
f 71 509 489
f 509 510 490
f 510 511 491
f 511 512 492
f 512 513 493
f 513 514 494
f 514 515 495
f 515 516 496
f 516 517 497
f 517 518 498
f 518 519 499
f 519 520 500
f 520 521 501
f 521 522 502
f 522 523 503
f 523 524 504
f 524 525 505
f 525 526 506
f 526 527 507
f 527 528 508
f 72 489 469
f 489 490 470
f 490 491 471
f 491 492 472
f 492 493 473
f 493 494 474
f 494 495 475
f 495 496 476
f 496 497 477
f 497 498 478
f 498 499 479
f 499 500 480
f 500 501 481
f 501 502 482
f 502 503 483
f 503 504 484
f 504 505 485
f 505 506 486
f 506 507 487
f 507 508 488
f 73 469 449
f 469 470 450
f 470 471 451
f 471 472 452
f 472 473 453
f 473 474 454
f 474 475 455
f 475 476 456
f 476 477 457
f 477 478 458
f 478 479 459
f 479 480 460
f 480 481 461
f 481 482 462
f 482 483 463
f 483 484 464
f 484 485 465
f 485 486 466
f 466 486 487
f 467 487 488
f 74 449 429
f 449 450 430
f 450 451 431
f 451 452 432
f 452 453 433
f 453 454 434
f 454 455 435
f 455 456 436
f 456 457 437
f 457 458 438
f 458 459 439
f 459 460 440
f 460 461 441
f 461 462 442
f 462 463 443
f 463 464 444
f 464 465 445
f 465 466 446
f 446 466 467
f 447 467 468
f 75 429 409
f 429 430 410
f 430 431 411
f 431 432 412
f 432 433 413
f 433 434 414
f 434 435 415
f 435 436 416
f 436 437 417
f 437 438 418
f 438 439 419
f 439 440 420
f 440 441 421
f 441 442 422
f 442 443 423
f 423 443 444
f 444 445 425
f 445 446 426
f 426 446 447
f 427 447 448
f 76 409 389
f 409 410 390
f 410 411 391
f 411 412 392
f 412 413 393
f 413 414 394
f 414 415 395
f 415 416 396
f 416 417 397
f 417 418 398
f 418 419 399
f 419 420 400
f 420 421 401
f 421 422 402
f 422 423 403
f 423 424 404
f 424 425 405
f 425 426 406
f 426 427 407
f 407 427 428
f 77 389 369
f 389 390 370
f 390 391 371
f 391 392 372
f 392 393 373
f 393 394 374
f 394 395 375
f 395 396 376
f 396 397 377
f 397 398 378
f 398 399 379
f 399 400 380
f 400 401 381
f 401 402 382
f 402 403 383
f 403 404 384
f 404 405 385
f 405 406 386
f 406 407 387
f 387 407 408
f 78 369 349
f 369 370 350
f 370 371 351
f 371 372 352
f 372 373 353
f 373 374 354
f 374 375 355
f 375 376 356
f 376 377 357
f 377 378 358
f 378 379 359
f 379 380 360
f 380 381 361
f 381 382 362
f 382 383 363
f 383 384 364
f 384 385 365
f 385 386 366
f 386 387 367
f 387 388 368
f 79 349 329
f 349 350 330
f 350 351 331
f 351 352 332
f 352 353 333
f 353 354 334
f 354 355 335
f 355 356 336
f 356 357 337
f 357 358 338
f 358 359 339
f 359 360 340
f 360 361 341
f 361 362 342
f 362 363 343
f 363 364 344
f 364 365 345
f 365 366 346
f 346 366 367
f 347 367 368
f 80 329 309
f 329 330 310
f 330 331 311
f 331 332 312
f 332 333 313
f 333 334 314
f 334 335 315
f 335 336 316
f 336 337 317
f 337 338 318
f 338 339 319
f 339 340 320
f 340 341 321
f 341 342 322
f 342 343 323
f 343 344 324
f 324 344 345
f 325 345 346
f 326 346 347
f 327 347 348
f 81 309 289
f 309 310 290
f 310 311 291
f 311 312 292
f 312 313 293
f 313 314 294
f 314 315 295
f 315 316 296
f 316 317 297
f 317 318 298
f 318 319 299
f 319 320 300
f 320 321 301
f 321 322 302
f 322 323 303
f 323 324 304
f 304 324 325
f 305 325 326
f 306 326 327
f 307 327 328
f 82 289 269
f 289 290 270
f 290 291 271
f 291 292 272
f 292 293 273
f 293 294 274
f 294 295 275
f 295 296 276
f 296 297 277
f 297 298 278
f 298 299 279
f 299 300 280
f 300 301 281
f 301 302 282
f 302 303 283
f 303 304 284
f 304 305 285
f 305 306 286
f 286 306 307
f 287 307 308
f 83 269 249
f 269 270 250
f 270 271 251
f 271 272 252
f 272 273 253
f 273 274 254
f 274 275 255
f 275 276 256
f 276 277 257
f 277 278 258
f 278 279 259
f 279 280 260
f 280 281 261
f 281 282 262
f 282 283 263
f 283 284 264
f 284 285 265
f 285 286 266
f 266 286 287
f 267 287 288
f 84 249 229
f 249 250 230
f 250 251 231
f 251 252 232
f 252 253 233
f 253 254 234
f 254 255 235
f 255 256 236
f 256 257 237
f 257 258 238
f 258 259 239
f 259 260 240
f 260 261 241
f 261 262 242
f 262 263 243
f 263 264 244
f 264 265 245
f 265 266 246
f 266 267 247
f 247 267 268
f 85 229 209
f 229 230 210
f 230 231 211
f 231 232 212
f 232 233 213
f 233 234 214
f 234 235 215
f 235 236 216
f 236 237 217
f 237 238 218
f 238 239 219
f 239 240 220
f 240 241 221
f 241 242 222
f 242 243 223
f 243 244 224
f 244 245 225
f 245 246 226
f 246 247 227
f 227 247 248
f 86 209 189
f 209 210 190
f 210 211 191
f 211 212 192
f 212 213 193
f 213 214 194
f 214 215 195
f 215 216 196
f 216 217 197
f 217 218 198
f 218 219 199
f 219 220 200
f 220 221 201
f 221 222 202
f 222 223 203
f 223 224 204
f 224 225 205
f 225 226 206
f 226 227 207
f 207 227 228
f 87 189 169
f 189 190 170
f 190 191 171
f 191 192 172
f 192 193 173
f 193 194 174
f 194 195 175
f 195 196 176
f 196 197 177
f 197 198 178
f 198 199 179
f 199 200 180
f 200 201 181
f 201 202 182
f 202 203 183
f 203 204 184
f 204 205 185
f 205 206 186
f 206 207 187
f 207 208 188
f 88 169 148
f 148 169 170
f 147 170 171
f 146 171 172
f 145 172 173
f 144 173 174
f 143 174 175
f 142 175 176
f 141 176 177
f 140 177 178
f 139 178 179
f 138 179 180
f 137 180 181
f 136 181 182
f 135 182 183
f 134 183 184
f 133 184 185
f 132 185 186
f 131 186 187
f 130 187 188
f 128 149 6
f 127 150 149
f 126 151 150
f 125 152 151
f 124 153 152
f 123 154 153
f 122 155 154
f 121 156 155
f 120 157 156
f 119 158 157
f 118 159 158
f 117 160 159
f 116 161 160
f 115 162 161
f 114 163 162
f 113 164 163
f 112 165 164
f 111 166 165
f 110 167 166
f 109 168 167
f 108 129 1
f 107 130 129
f 106 131 130
f 105 132 131
f 104 133 132
f 103 134 133
f 102 135 134
f 101 136 135
f 100 137 136
f 99 138 137
f 98 139 138
f 97 140 139
f 96 141 140
f 95 142 141
f 94 143 142
f 93 144 143
f 92 145 144
f 91 146 145
f 90 147 146
f 89 148 147
f 6 149 549
f 149 150 550
f 150 151 551
f 151 152 552
f 152 153 553
f 153 154 554
f 154 155 555
f 155 156 556
f 156 157 557
f 157 158 558
f 158 159 559
f 159 160 560
f 160 161 561
f 161 162 562
f 162 163 563
f 163 164 564
f 164 165 565
f 165 166 566
f 166 167 567
f 167 168 568
f 4 109 949
f 109 110 950
f 110 111 951
f 111 112 952
f 112 113 953
f 113 114 954
f 114 115 955
f 115 116 956
f 116 117 957
f 117 118 958
f 118 119 959
f 119 120 960
f 120 121 961
f 121 122 962
f 122 123 963
f 123 124 964
f 124 125 965
f 125 126 966
f 126 127 967
f 127 128 968
