# Blender v2.93.18 OBJ File: ''
# www.blender.org
o Cube
v 20.000000 1.000000 -20.000000
v 20.000000 -1.000000 -20.000000
v 20.000000 1.000000 20.000000
v 20.000000 -1.000000 20.000000
v -20.000000 1.000000 -20.000000
v -20.000000 -1.000000 -20.000000
v -20.000000 1.000000 20.000000
v -20.000000 -1.000000 20.000000
v 13.333332 -1.000000 -20.000000
v 6.666666 -1.000000 -20.000000
v -0.000001 -1.000000 -20.000000
v -6.666667 -1.000000 -20.000000
v -13.333334 -1.000000 -20.000000
v 13.333332 1.000000 20.000000
v 6.666666 1.000000 20.000000
v -0.000001 1.000000 20.000000
v -6.666667 1.000000 20.000000
v -13.333334 1.000000 20.000000
v -13.333332 -1.000000 20.000000
v -6.666666 -1.000000 20.000000
v 0.000001 -1.000000 20.000000
v 6.666667 -1.000000 20.000000
v 13.333334 -1.000000 20.000000
v -13.333332 1.000000 -20.000000
v -6.666666 1.000000 -20.000000
v 0.000001 1.000000 -20.000000
v 6.666667 1.000000 -20.000000
v 13.333334 1.000000 -20.000000
v -20.000000 -1.000000 -13.333332
v -20.000000 -1.000000 -6.666666
v -20.000000 -1.000000 0.000001
v -20.000000 -1.000000 6.666667
v -20.000000 -1.000000 13.333334
v 20.000000 1.000000 -13.333332
v 20.000000 1.000000 -6.666666
v 20.000000 1.000000 0.000001
v 20.000000 1.000000 6.666667
v 20.000000 1.000000 13.333334
v -20.000000 1.000000 13.333332
v -20.000000 1.000000 6.666666
v -20.000000 1.000000 -0.000001
v -20.000000 1.000000 -6.666667
v -20.000000 1.000000 -13.333334
v 20.000000 -1.000000 13.333332
v 20.000000 -1.000000 6.666666
v 20.000000 -1.000000 -0.000001
v 20.000000 -1.000000 -6.666667
v 20.000000 -1.000000 -13.333334
v -13.333334 -1.000000 -13.333332
v -13.333334 -1.000000 -6.666666
v -13.333334 -1.000000 0.000001
v -13.333334 -1.000000 6.666667
v -13.333332 -1.000000 13.333334
v -6.666667 -1.000000 -13.333332
v -6.666667 -1.000000 -6.666666
v -6.666666 -1.000000 0.000001
v -6.666666 -1.000000 6.666667
v -6.666666 -1.000000 13.333334
v -0.000000 -1.000000 -13.333332
v -0.000000 -1.000000 -6.666666
v 0.000000 -1.000000 0.000001
v 0.000000 -1.000000 6.666667
v 0.000000 -1.000000 13.333334
v 6.666666 -1.000000 -13.333332
v 6.666666 -1.000000 -6.666666
v 6.666666 -1.000000 0.000001
v 6.666667 -1.000000 6.666667
v 6.666667 -1.000000 13.333334
v 13.333332 -1.000000 -13.333332
v 13.333332 -1.000000 -6.666666
v 13.333332 -1.000000 0.000001
v 13.333332 -1.000000 6.666667
v 13.333332 -1.000000 13.333334
v 13.333334 1.000000 -13.333332
v 13.333334 1.000000 -6.666666
v 13.333334 1.000000 0.000001
v 13.333334 1.000000 6.666667
v 13.333332 1.000000 13.333334
v 6.666667 1.000000 -13.333332
v 6.666667 1.000000 -6.666666
v 6.666666 1.000000 0.000001
v 6.666666 1.000000 6.666667
v 6.666666 1.000000 13.333334
v 0.000000 1.000000 -13.333332
v 0.000000 1.000000 -6.666666
v -0.000000 1.000000 0.000001
v -0.000000 1.000000 6.666667
v -0.000000 1.000000 13.333334
v -6.666666 1.000000 -13.333332
v -6.666666 1.000000 -6.666666
v -6.666666 1.000000 0.000001
v -6.666667 1.000000 6.666667
v -6.666667 1.000000 13.333334
v -13.333332 1.000000 -13.333332
v -13.333332 1.000000 -6.666666
v -13.333332 1.000000 0.000001
v -13.333332 1.000000 6.666667
v -13.333332 1.000000 13.333334
s off
f 98 7 18
f 18 8 19
f 43 6 29
f 73 4 23
f 38 4 44
f 28 2 9
f 5 13 6
f 24 12 13
f 25 11 12
f 26 10 11
f 27 9 10
f 53 8 33
f 58 19 53
f 63 20 58
f 68 21 63
f 73 22 68
f 3 23 4
f 14 22 23
f 15 21 22
f 16 20 21
f 17 19 20
f 78 3 38
f 83 14 78
f 88 15 83
f 93 16 88
f 98 17 93
f 24 89 25
f 94 90 89
f 95 91 90
f 96 92 91
f 92 98 93
f 25 84 26
f 89 85 84
f 90 86 85
f 91 87 86
f 92 88 87
f 26 79 27
f 84 80 79
f 85 81 80
f 86 82 81
f 87 83 82
f 27 74 28
f 79 75 74
f 80 76 75
f 81 77 76
f 82 78 77
f 28 34 1
f 74 35 34
f 75 36 35
f 76 37 36
f 77 38 37
f 9 64 10
f 69 65 64
f 70 66 65
f 71 67 66
f 67 73 68
f 10 59 11
f 64 60 59
f 65 61 60
f 66 62 61
f 67 63 62
f 11 54 12
f 59 55 54
f 60 56 55
f 61 57 56
f 62 58 57
f 12 49 13
f 54 50 49
f 55 51 50
f 56 52 51
f 57 53 52
f 13 29 6
f 49 30 29
f 50 31 30
f 51 32 31
f 52 33 32
f 1 48 2
f 34 47 48
f 35 46 47
f 36 45 46
f 37 44 45
f 2 69 9
f 69 47 70
f 70 46 71
f 71 45 72
f 72 44 73
f 7 33 8
f 39 32 33
f 40 31 32
f 41 30 31
f 42 29 30
f 5 94 24
f 94 42 95
f 95 41 96
f 96 40 97
f 97 39 98
f 98 39 7
f 18 7 8
f 43 5 6
f 73 44 4
f 38 3 4
f 28 1 2
f 5 24 13
f 24 25 12
f 25 26 11
f 26 27 10
f 27 28 9
f 53 19 8
f 58 20 19
f 63 21 20
f 68 22 21
f 73 23 22
f 3 14 23
f 14 15 22
f 15 16 21
f 16 17 20
f 17 18 19
f 78 14 3
f 83 15 14
f 88 16 15
f 93 17 16
f 98 18 17
f 24 94 89
f 94 95 90
f 95 96 91
f 96 97 92
f 92 97 98
f 25 89 84
f 89 90 85
f 90 91 86
f 91 92 87
f 92 93 88
f 26 84 79
f 84 85 80
f 85 86 81
f 86 87 82
f 87 88 83
f 27 79 74
f 79 80 75
f 80 81 76
f 81 82 77
f 82 83 78
f 28 74 34
f 74 75 35
f 75 76 36
f 76 77 37
f 77 78 38
f 9 69 64
f 69 70 65
f 70 71 66
f 71 72 67
f 67 72 73
f 10 64 59
f 64 65 60
f 65 66 61
f 66 67 62
f 67 68 63
f 11 59 54
f 59 60 55
f 60 61 56
f 61 62 57
f 62 63 58
f 12 54 49
f 54 55 50
f 55 56 51
f 56 57 52
f 57 58 53
f 13 49 29
f 49 50 30
f 50 51 31
f 51 52 32
f 52 53 33
f 1 34 48
f 34 35 47
f 35 36 46
f 36 37 45
f 37 38 44
f 2 48 69
f 69 48 47
f 70 47 46
f 71 46 45
f 72 45 44
f 7 39 33
f 39 40 32
f 40 41 31
f 41 42 30
f 42 43 29
f 5 43 94
f 94 43 42
f 95 42 41
f 96 41 40
f 97 40 39
