# Blender v2.93.18 OBJ File: 'banana.blend'
# www.blender.org
o Cylinder
v -0.961228 0.000000 -0.877731
v 1.045820 -0.000000 -0.824392
v -1.034013 -0.327912 -0.810918
v 1.121835 -0.306186 -0.761639
v -1.095717 -0.605903 -0.620650
v 1.186278 -0.565759 -0.582933
v -1.136947 -0.791650 -0.335893
v 1.229337 -0.739199 -0.315481
v -1.151425 -0.856876 0.000000
v 1.244457 -0.800104 0.000000
v -1.136947 -0.791651 0.335893
v 1.229337 -0.739199 0.315481
v -1.095717 -0.605903 0.620650
v 1.186278 -0.565759 0.582933
v -1.034013 -0.327912 0.810918
v 1.121835 -0.306186 0.761639
v -0.961228 0.000000 0.877731
v 1.045820 0.000000 0.824392
v -0.888443 0.327912 0.810918
v 0.969806 0.306186 0.761639
v -0.826739 0.605903 0.620650
v 0.905363 0.565759 0.582933
v -0.785510 0.791650 0.335893
v 0.862304 0.739199 0.315481
v -0.771032 0.856876 -0.000000
v 0.847184 0.800104 -0.000000
v -0.785510 0.791650 -0.335893
v 0.862304 0.739199 -0.315481
v -0.826739 0.605903 -0.620649
v 0.905363 0.565759 -0.582933
v -0.888443 0.327912 -0.810918
v 0.969806 0.306186 -0.761639
v -2.422412 0.240244 -0.735638
v -2.559400 0.001389 -0.648381
v -2.671201 -0.189263 -0.462414
v -2.740794 -0.302687 -0.206049
v -2.757586 -0.321613 0.081685
v -2.719018 -0.243162 0.356984
v -2.630964 -0.079277 0.577935
v -2.506828 0.145092 0.710901
v -2.365509 0.395788 0.735638
v -2.228522 0.634644 0.648381
v -2.116721 0.825295 0.462414
v -2.047128 0.938719 0.206049
v -2.030336 0.957645 -0.081685
v -2.068903 0.879195 -0.356984
v -2.156958 0.715309 -0.577935
v -2.281093 0.490940 -0.710901
v -3.689704 0.875816 -0.510762
v -3.801727 0.740182 -0.443950
v -3.891436 0.636613 -0.314972
v -3.945173 0.580877 -0.143463
v -3.954757 0.581459 0.044467
v -3.918730 0.638270 0.220205
v -3.842575 0.742662 0.356999
v -3.737888 0.878741 0.434022
v -3.620605 1.025791 0.439548
v -3.508582 1.161425 0.372736
v -3.418873 1.264994 0.243758
v -3.365136 1.320730 0.072248
v -3.355551 1.320148 -0.115681
v -3.391579 1.263337 -0.291420
v -3.467733 1.158946 -0.428213
v -3.572421 1.022866 -0.505236
v -3.988437 1.336636 -0.327825
v -4.065364 1.280955 -0.291758
v -4.126283 1.239002 -0.222132
v -4.161920 1.217166 -0.129546
v -4.166849 1.218770 -0.028096
v -4.140320 1.243569 0.066773
v -4.086372 1.287789 0.140619
v -4.013217 1.344698 0.182198
v -3.931995 1.405631 0.185181
v -3.855067 1.461312 0.149114
v -3.794148 1.503265 0.079488
v -3.758512 1.525101 -0.013098
v -3.753583 1.523498 -0.114548
v -3.780112 1.498698 -0.209418
v -3.834059 1.454477 -0.283263
v -3.907214 1.397569 -0.324842
v 2.167498 0.015787 -0.626097
v 2.059942 0.251769 -0.677683
v 2.258680 -0.184269 -0.479194
v 2.319606 -0.317943 -0.259338
v 2.341001 -0.364883 0.000000
v 2.319606 -0.317943 0.259338
v 2.258680 -0.184269 0.479194
v 2.167498 0.015787 0.626097
v 2.059942 0.251769 0.677683
v 1.952385 0.487752 0.626097
v 1.861203 0.687808 0.479194
v 1.800277 0.821481 0.259338
v 1.778883 0.868421 -0.000000
v 1.800277 0.821481 -0.259338
v 1.861203 0.687808 -0.479194
v 1.952385 0.487752 -0.626097
v 3.038398 0.546134 -0.341313
v 2.953020 0.658819 -0.369434
v 3.110777 0.450603 -0.261230
v 3.159139 0.386772 -0.141376
v 3.176122 0.364358 0.000000
v 3.159139 0.386772 0.141376
v 3.110777 0.450603 0.261230
v 3.038398 0.546134 0.341313
v 2.953020 0.658819 0.369434
v 2.867643 0.771504 0.341313
v 2.795263 0.867034 0.261230
v 2.746901 0.930865 0.141376
v 2.729918 0.953280 -0.000000
v 2.746901 0.930865 -0.141376
v 2.795263 0.867034 -0.261230
v 2.867643 0.771504 -0.341313
v 3.501838 1.000284 -0.207606
v 3.439173 1.056312 -0.214987
v 3.557524 0.950288 -0.168619
v 3.597753 0.913935 -0.103962
v 3.616401 0.896759 -0.023477
v 3.610629 0.901377 0.060582
v 3.581315 0.927083 0.135418
v 3.532922 0.969966 0.189638
v 3.472818 1.023496 0.214987
v 3.410153 1.079524 0.207606
v 3.354466 1.129521 0.168619
v 3.314237 1.165874 0.103962
v 3.295589 1.183049 0.023477
v 3.301362 1.178432 -0.060582
v 3.330675 1.152725 -0.135418
v 3.379068 1.109843 -0.189638
v 3.660580 1.136674 -0.300919
v 3.569449 1.218153 -0.311652
v 3.741561 1.063967 -0.244222
v 3.800064 1.011101 -0.150194
v 3.827183 0.986124 -0.033150
v 3.818788 0.992838 0.089092
v 3.776159 1.030222 0.197922
v 3.705784 1.092584 0.276770
v 3.618378 1.170430 0.313634
v 3.527247 1.251908 0.302901
v 3.446266 1.324615 0.246204
v 3.387763 1.377481 0.152176
v 3.360644 1.402458 0.035132
v 3.369039 1.395744 -0.087110
v 3.411668 1.358360 -0.195940
v 3.482043 1.295998 -0.274789
v 3.737156 1.279272 -0.361253
v 3.627677 1.377156 -0.374147
v 3.834442 1.191926 -0.293141
v 3.904724 1.128416 -0.180181
v 3.937304 1.098410 -0.039570
v 3.927219 1.106476 0.107285
v 3.876006 1.151387 0.238026
v 3.791461 1.226305 0.332751
v 3.686457 1.319824 0.377037
v 3.576977 1.417708 0.364142
v 3.479691 1.505053 0.296030
v 3.409409 1.568564 0.183070
v 3.376830 1.598570 0.042460
v 3.386915 1.590504 -0.104395
v 3.438127 1.545593 -0.235137
v 3.522672 1.470675 -0.329861
v -4.139265 1.553218 -0.246250
v -4.190305 1.521092 -0.220806
v -4.229887 1.497636 -0.174248
v -4.251983 1.486421 -0.113663
v -4.253232 1.489154 -0.048276
v -4.233442 1.505419 0.011960
v -4.195626 1.532740 0.057873
v -4.145541 1.566957 0.082475
v -4.090814 1.602863 0.082019
v -4.039773 1.634989 0.056575
v -4.000192 1.658445 0.010017
v -3.978095 1.669660 -0.050567
v -3.976847 1.666928 -0.115955
v -3.996637 1.650662 -0.176190
v -4.034453 1.623341 -0.222104
v -4.084538 1.589124 -0.246705
v -4.207220 1.730942 -0.200579
v -4.244474 1.721897 -0.184405
v -4.273070 1.715761 -0.154810
v -4.288654 1.713468 -0.116299
v -4.288854 1.715367 -0.074734
v -4.273639 1.721170 -0.036445
v -4.245326 1.729992 -0.007259
v -4.208226 1.740491 0.008379
v -4.167986 1.751068 0.008089
v -4.130732 1.760113 -0.008085
v -4.102137 1.766249 -0.037680
v -4.086552 1.768542 -0.076191
v -4.086353 1.766643 -0.117755
v -4.101567 1.760840 -0.156045
v -4.129880 1.752018 -0.185230
v -4.166980 1.741519 -0.200869
v -4.278573 1.931904 -0.296923
v -4.346718 1.915358 -0.267338
v -4.399026 1.904134 -0.213202
v -4.427532 1.899940 -0.142757
v -4.427897 1.903414 -0.066727
v -4.400067 1.914029 0.003312
v -4.348277 1.930166 0.056698
v -4.280413 1.949370 0.085304
v -4.206806 1.968718 0.084774
v -4.138660 1.985264 0.055189
v -4.086354 1.996488 0.001053
v -4.057846 2.000682 -0.069392
v -4.057482 1.997208 -0.145422
v -4.085312 1.986594 -0.215461
v -4.137102 1.970456 -0.268847
v -4.204966 1.951252 -0.297453
v -4.297287 2.003008 -0.300262
v -4.365432 1.986463 -0.270677
v -4.417740 1.975239 -0.216541
v -4.446246 1.971044 -0.146096
v -4.446611 1.974519 -0.070067
v -4.418781 1.985133 -0.000027
v -4.366991 2.001271 0.053359
v -4.299127 2.020475 0.081964
v -4.225520 2.039823 0.081434
v -4.157374 2.056369 0.051849
v -4.105068 2.067592 -0.002286
v -4.076560 2.071787 -0.072731
v -4.076196 2.068312 -0.148761
v -4.104026 2.057699 -0.218800
v -4.155816 2.041561 -0.272187
v -4.223680 2.022357 -0.300792
s off
f 115 132 116
f 137 152 153
f 124 139 140
f 117 132 133
f 124 141 125
f 117 134 118
f 126 141 142
f 119 134 135
f 126 143 127
f 120 135 136
f 128 143 144
f 120 137 121
f 113 130 129
f 128 130 114
f 122 137 138
f 113 131 115
f 122 139 123
f 155 151 147
f 130 145 129
f 144 146 130
f 138 153 154
f 129 147 131
f 139 154 155
f 131 148 132
f 140 155 156
f 132 149 133
f 141 156 157
f 134 149 150
f 141 158 142
f 135 150 151
f 142 159 143
f 136 151 152
f 143 160 144
f 181 196 180
f 201 218 217
f 189 204 188
f 182 197 181
f 189 206 205
f 182 199 198
f 190 207 206
f 184 199 183
f 192 207 191
f 185 200 184
f 177 194 193
f 192 193 208
f 186 201 185
f 178 195 194
f 186 203 202
f 179 196 195
f 188 203 187
f 222 224 216
f 195 210 194
f 202 219 218
f 196 211 195
f 203 220 219
f 197 212 196
f 205 220 204
f 198 213 197
f 206 221 205
f 198 215 214
f 207 222 206
f 200 215 199
f 208 223 207
f 201 216 200
f 194 209 193
f 208 209 224
f 115 131 132
f 137 136 152
f 124 123 139
f 117 116 132
f 124 140 141
f 117 133 134
f 126 125 141
f 119 118 134
f 126 142 143
f 120 119 135
f 128 127 143
f 120 136 137
f 113 114 130
f 128 144 130
f 122 121 137
f 113 129 131
f 122 138 139
f 147 145 146
f 146 160 147
f 160 159 147
f 159 158 157
f 157 156 159
f 156 155 159
f 155 154 153
f 153 152 155
f 152 151 155
f 151 150 149
f 149 148 151
f 148 147 151
f 147 159 155
f 130 146 145
f 144 160 146
f 138 137 153
f 129 145 147
f 139 138 154
f 131 147 148
f 140 139 155
f 132 148 149
f 141 140 156
f 134 133 149
f 141 157 158
f 135 134 150
f 142 158 159
f 136 135 151
f 143 159 160
f 181 197 196
f 201 202 218
f 189 205 204
f 182 198 197
f 189 190 206
f 182 183 199
f 190 191 207
f 184 200 199
f 192 208 207
f 185 201 200
f 177 178 194
f 192 177 193
f 186 202 201
f 178 179 195
f 186 187 203
f 179 180 196
f 188 204 203
f 224 209 210
f 210 211 212
f 212 213 214
f 214 215 212
f 215 216 212
f 216 217 218
f 218 219 216
f 219 220 216
f 220 221 222
f 222 223 224
f 224 210 216
f 210 212 216
f 220 222 216
f 195 211 210
f 202 203 219
f 196 212 211
f 203 204 220
f 197 213 212
f 205 221 220
f 198 214 213
f 206 222 221
f 198 199 215
f 207 223 222
f 200 216 215
f 208 224 223
f 201 217 216
f 194 210 209
f 208 193 209
l 1 3
l 4 2
l 1 2
l 4 3
l 3 5
l 6 4
l 6 5
l 5 7
l 8 6
l 8 7
l 7 9
l 10 8
l 10 9
l 9 11
l 12 10
l 12 11
l 11 13
l 14 12
l 14 13
l 13 15
l 16 14
l 16 15
l 15 17
l 18 16
l 18 17
l 17 19
l 20 18
l 20 19
l 19 21
l 22 20
l 22 21
l 21 23
l 24 22
l 24 23
l 23 25
l 26 24
l 26 25
l 25 27
l 28 26
l 28 27
l 27 29
l 30 28
l 30 29
l 29 31
l 32 30
l 32 31
l 31 1
l 2 32
l 33 34
l 34 35
l 35 36
l 36 37
l 37 38
l 38 39
l 39 40
l 40 41
l 41 42
l 42 43
l 43 44
l 44 45
l 45 46
l 46 47
l 47 48
l 48 33
l 11 38
l 37 9
l 21 43
l 42 19
l 31 48
l 47 29
l 7 36
l 35 5
l 17 41
l 40 15
l 3 34
l 33 1
l 27 46
l 45 25
l 13 39
l 23 44
l 49 50
l 50 51
l 51 52
l 52 53
l 53 54
l 54 55
l 55 56
l 56 57
l 57 58
l 58 59
l 59 60
l 60 61
l 61 62
l 62 63
l 63 64
l 64 49
l 45 61
l 60 44
l 38 54
l 53 37
l 46 62
l 39 55
l 47 63
l 40 56
l 48 64
l 41 57
l 34 50
l 49 33
l 42 58
l 35 51
l 43 59
l 36 52
l 65 66
l 66 67
l 67 68
l 68 69
l 69 70
l 70 71
l 71 72
l 72 73
l 73 74
l 74 75
l 75 76
l 76 77
l 77 78
l 78 79
l 79 80
l 80 65
l 51 67
l 66 50
l 59 75
l 74 58
l 52 68
l 60 76
l 53 69
l 61 77
l 54 70
l 62 78
l 55 71
l 63 79
l 56 72
l 64 80
l 57 73
l 65 49
l 81 82
l 83 81
l 84 83
l 85 84
l 86 85
l 87 86
l 88 87
l 89 88
l 90 89
l 91 90
l 92 91
l 93 92
l 94 93
l 95 94
l 96 95
l 82 96
l 20 90
l 91 22
l 30 95
l 96 32
l 6 83
l 84 8
l 16 88
l 89 18
l 2 82
l 81 4
l 26 93
l 94 28
l 12 86
l 87 14
l 92 24
l 85 10
l 97 98
l 99 97
l 100 99
l 101 100
l 102 101
l 103 102
l 104 103
l 105 104
l 106 105
l 107 106
l 108 107
l 109 108
l 110 109
l 111 110
l 112 111
l 98 112
l 96 112
l 98 82
l 89 105
l 106 90
l 81 97
l 99 83
l 107 91
l 100 84
l 108 92
l 101 85
l 109 93
l 102 86
l 110 94
l 103 87
l 111 95
l 104 88
l 109 125
l 126 110
l 102 118
l 119 103
l 127 111
l 120 104
l 128 112
l 121 105
l 98 114
l 113 97
l 122 106
l 115 99
l 123 107
l 116 100
l 124 108
l 117 101
l 161 162
l 162 163
l 163 164
l 164 165
l 165 166
l 166 167
l 167 168
l 168 169
l 169 170
l 170 171
l 171 172
l 172 173
l 173 174
l 174 175
l 175 176
l 176 161
l 71 167
l 166 70
l 79 175
l 174 78
l 72 168
l 80 176
l 73 169
l 66 162
l 161 65
l 74 170
l 67 163
l 75 171
l 68 164
l 76 172
l 69 165
l 77 173
l 175 191
l 190 174
l 168 184
l 183 167
l 176 192
l 169 185
l 162 178
l 177 161
l 170 186
l 163 179
l 171 187
l 164 180
l 172 188
l 165 181
l 173 189
l 166 182
