# Blender v2.93.18 OBJ File: 'house1.blend'
# www.blender.org
o Plane_Plane.002
v -20.000000 0.000000 20.000000
v 20.000000 0.000000 20.000000
v -20.000000 0.000000 -20.000000
v 20.000000 0.000000 -20.000000
v -20.000000 20.004688 20.000000
v -20.000000 20.004688 -20.000000
v 19.995909 0.000000 -20.000000
v 19.995909 20.004688 -20.000000
v 20.004282 0.000000 20.000000
v 20.004282 20.004688 20.000000
v 20.004282 0.000000 -20.001879
v 20.004282 20.004688 -20.001879
v 14.282207 20.004688 -20.000000
v 8.568506 20.004688 -20.000000
v 2.854805 20.004688 -20.000000
v -2.858896 20.004688 -20.000000
v -8.572598 20.004688 -20.000000
v -14.286299 20.004688 -20.000000
v -14.286299 0.000000 -20.000000
v -8.572598 0.000000 -20.000000
v -2.858896 0.000000 -20.000000
v 2.854805 0.000000 -20.000000
v 8.568506 0.000000 -20.000000
v 14.282207 0.000000 -20.000000
v -20.000000 0.000000 -14.285715
v -20.000000 0.000000 -8.571428
v -20.000000 0.000000 -2.857143
v -20.000000 0.000000 2.857143
v -20.000000 0.000000 8.571428
v -20.000000 0.000000 14.285715
v 20.000000 0.000000 14.285715
v 20.000000 0.000000 8.571428
v 20.000000 0.000000 2.857143
v 20.000000 0.000000 -2.857143
v 20.000000 0.000000 -8.571428
v 20.000000 0.000000 -14.285715
v -20.000000 20.004688 -14.285715
v -20.000000 20.004688 -8.571428
v -20.000000 20.004688 -2.857143
v -20.000000 20.004688 2.857143
v -20.000000 20.004688 8.571428
v -20.000000 20.004688 14.285715
v 14.289384 0.000000 20.000000
v 8.574487 0.000000 20.000000
v 2.859589 0.000000 20.000000
v -2.855308 0.000000 20.000000
v -8.570206 0.000000 20.000000
v -14.285102 0.000000 20.000000
v -14.285102 20.004688 20.000000
v -8.570205 20.004688 20.000000
v -2.855307 20.004688 20.000000
v 2.859590 20.004688 20.000000
v 8.574488 20.004688 20.000000
v 14.289384 20.004688 20.000000
v 20.004282 0.000000 -14.287324
v 20.004282 0.000000 -8.572770
v 20.004282 0.000000 -3.858216
v 20.004282 0.000000 3.856338
v 20.004282 0.000000 8.570892
v 20.004282 0.000000 14.285445
v 20.004282 20.004688 14.285445
v 20.004282 20.004688 8.570891
v 20.004282 20.004688 3.856337
v 20.004282 20.004688 -3.858217
v 20.004282 20.004688 -8.572771
v 20.004282 20.004688 -14.287324
v -14.285715 0.000000 20.000000
v -8.571428 0.000000 20.000000
v -2.857143 0.000000 20.000000
v 2.857143 0.000000 20.000000
v 8.571428 0.000000 20.000000
v 14.285715 0.000000 20.000000
v 14.285715 0.000000 -20.000000
v 8.571428 0.000000 -20.000000
v 2.857143 0.000000 -20.000000
v -2.857143 0.000000 -20.000000
v -8.571428 0.000000 -20.000000
v -14.285715 0.000000 -20.000000
v 14.285715 0.000000 14.285715
v 8.571428 0.000000 14.285715
v 2.857143 0.000000 14.285715
v -2.857143 0.000000 14.285715
v -8.571428 0.000000 14.285715
v -14.285715 0.000000 14.285715
v 14.285715 0.000000 8.571428
v 8.571428 0.000000 8.571428
v 2.857143 0.000000 8.571428
v -2.857143 0.000000 8.571428
v -8.571428 0.000000 8.571428
v -14.285715 0.000000 8.571428
v 14.285715 0.000000 2.857143
v 8.571428 0.000000 2.857143
v 2.857143 0.000000 2.857143
v -2.857143 0.000000 2.857143
v -8.571428 0.000000 2.857143
v -14.285715 0.000000 2.857143
v 14.285715 0.000000 -2.857143
v 8.571428 0.000000 -2.857143
v 2.857143 0.000000 -2.857143
v -2.857143 0.000000 -2.857143
v -8.571428 0.000000 -2.857143
v -14.285715 0.000000 -2.857143
v 14.285715 0.000000 -8.571428
v 8.571428 0.000000 -8.571428
v 2.857143 0.000000 -8.571428
v -2.857143 0.000000 -8.571428
v -8.571428 0.000000 -8.571428
v -14.285715 0.000000 -8.571428
v 14.285715 0.000000 -14.285715
v 8.571428 0.000000 -14.285715
v 2.857143 0.000000 -14.285715
v -2.857143 0.000000 -14.285715
v -8.571428 0.000000 -14.285715
v -14.285715 0.000000 -14.285715
v -20.000000 15.003516 20.000000
v -20.000000 10.002344 20.000000
v -20.000000 5.001172 20.000000
v -20.000000 5.001172 -20.000000
v -20.000000 10.002344 -20.000000
v -20.000000 15.003516 -20.000000
v 19.995909 5.001172 -20.000000
v 19.995909 10.002344 -20.000000
v 19.995909 15.003516 -20.000000
v 20.004282 15.003516 20.000000
v 20.004282 10.002344 20.000000
v 20.004282 5.001172 20.000000
v 20.004282 15.003516 -20.001879
v 20.004282 10.002344 -20.001879
v 20.004282 5.001172 -20.001879
v -14.286299 5.001172 -20.000000
v -14.286299 10.002344 -20.000000
v -14.286299 15.003516 -20.000000
v -8.572598 5.001172 -20.000000
v -8.572598 10.002344 -20.000000
v -8.572598 15.003516 -20.000000
v -2.858896 5.001172 -20.000000
v -2.858896 10.002344 -20.000000
v -2.858896 15.003516 -20.000000
v 2.854805 5.001172 -20.000000
v 2.854805 10.002344 -20.000000
v 2.854805 15.003516 -20.000000
v 8.568506 5.001172 -20.000000
v 8.568506 10.002344 -20.000000
v 8.568506 15.003516 -20.000000
v 14.282207 5.001172 -20.000000
v 14.282207 10.002344 -20.000000
v 14.282207 15.003516 -20.000000
v -20.000000 5.001172 14.285715
v -20.000000 10.002344 14.285715
v -20.000000 15.003516 14.285715
v -20.000000 5.001172 8.571428
v -20.000000 10.002344 8.571428
v -20.000000 15.003516 8.571428
v -20.000000 5.001172 2.857143
v -20.000000 10.002344 2.857143
v -20.000000 15.003516 2.857143
v -20.000000 5.001172 -2.857143
v -20.000000 10.002344 -2.857143
v -20.000000 15.003516 -2.857143
v -20.000000 5.001172 -8.571428
v -20.000000 10.002344 -8.571428
v -20.000000 15.003516 -8.571428
v -20.000000 5.001172 -14.285715
v -20.000000 10.002344 -14.285715
v -20.000000 15.003516 -14.285715
v -14.285102 15.003516 20.000000
v -14.285102 10.002344 20.000000
v -14.285102 5.001172 20.000000
v -8.570205 15.003516 20.000000
v -8.570205 10.002344 20.000000
v -8.570205 5.001172 20.000000
v -2.855307 15.003516 20.000000
v -2.855308 10.002344 20.000000
v -2.855308 5.001172 20.000000
v 2.859590 15.003516 20.000000
v 2.859590 10.002344 20.000000
v 2.859589 5.001172 20.000000
v 8.574487 15.003516 20.000000
v 8.574487 10.002344 20.000000
v 8.574487 5.001172 20.000000
v 14.289384 15.003516 20.000000
v 14.289384 10.002344 20.000000
v 14.289384 5.001172 20.000000
v 20.004282 15.003516 14.285445
v 20.004282 10.002344 14.285445
v 20.004282 5.001172 14.285445
v 20.004282 15.003516 8.570891
v 20.004282 10.002344 8.570891
v 20.004282 5.001172 8.570891
v 20.004282 15.003516 3.856337
v 20.004282 10.002344 3.856337
v 20.004282 5.001172 3.856338
v 20.004282 15.003516 -3.858216
v 20.004282 10.002344 -3.858216
v 20.004282 5.001172 -3.858216
v 20.004282 15.003516 -8.572770
v 20.004282 10.002344 -8.572770
v 20.004282 5.001172 -8.572770
v 20.004282 15.003516 -14.287324
v 20.004282 10.002344 -14.287324
v 20.004282 5.001172 -14.287324
v 19.999998 20.004688 20.000000
v 19.999998 20.004688 -20.000000
v 19.999998 20.004688 -14.285715
v 19.999998 20.004688 -8.571428
v 19.999998 20.004688 -2.857143
v 19.999998 20.004688 2.857143
v 19.999998 20.004688 8.571428
v 19.999998 20.004688 14.285715
v 14.285712 20.004688 8.571428
v 8.571426 20.004688 8.571428
v 2.857141 20.004688 8.571428
v -2.857144 20.004688 8.571428
v -8.571429 20.004688 8.571428
v -14.285715 20.004688 8.571428
v -14.285715 20.004688 2.857143
v -8.571429 20.004688 2.857143
v -2.857144 20.004688 2.857143
v 2.857141 20.004688 2.857143
v 8.571426 20.004688 2.857143
v 14.285712 20.004688 2.857143
v 14.285712 20.004688 20.000000
v 8.571426 20.004688 20.000000
v 2.857141 20.004688 20.000000
v -2.857144 20.004688 20.000000
v -8.571429 20.004688 20.000000
v -14.285715 20.004688 20.000000
v -14.285715 20.004688 14.285715
v -8.571429 20.004688 14.285715
v -2.857144 20.004688 14.285715
v 2.857141 20.004688 14.285715
v 8.571426 20.004688 14.285715
v 14.285712 20.004688 14.285715
v 14.285712 20.004688 -2.857143
v 8.571426 20.004688 -2.857143
v 2.857141 20.004688 -2.857143
v -2.857144 20.004688 -2.857143
v -8.571429 20.004688 -2.857143
v -14.285715 20.004688 -2.857143
v -14.285715 20.004688 -8.571428
v -8.571429 20.004688 -8.571428
v -2.857144 20.004688 -8.571428
v 2.857141 20.004688 -8.571428
v 8.571426 20.004688 -8.571428
v 14.285712 20.004688 -8.571428
v 14.285712 20.004688 -14.285715
v 8.571426 20.004688 -14.285715
v 2.857141 20.004688 -14.285715
v -2.857144 20.004688 -14.285715
v -8.571429 20.004688 -14.285715
v -14.285715 20.004688 -14.285715
v -14.285715 20.004688 -20.000000
v -8.571429 20.004688 -20.000000
v -2.857144 20.004688 -20.000000
v 2.857141 20.004688 -20.000000
v 8.571426 20.004688 -20.000000
v 14.285712 20.004688 -20.000000
s off
f 36 73 109
f 120 37 165
f 24 121 145
f 54 124 181
f 66 127 199
f 3 130 118
f 19 133 130
f 20 136 133
f 21 139 136
f 22 142 139
f 23 145 142
f 150 5 115
f 153 42 150
f 156 41 153
f 159 40 156
f 162 39 159
f 165 38 162
f 2 79 72
f 31 85 79
f 32 91 85
f 33 97 91
f 34 103 97
f 35 109 103
f 5 166 115
f 49 169 166
f 50 172 169
f 51 175 172
f 52 178 175
f 53 181 178
f 10 184 124
f 61 187 184
f 62 190 187
f 63 193 190
f 64 196 193
f 65 199 196
f 108 25 26
f 107 114 108
f 106 113 107
f 105 112 106
f 104 111 105
f 103 110 104
f 102 26 27
f 101 108 102
f 100 107 101
f 99 106 100
f 98 105 99
f 97 104 98
f 96 27 28
f 95 102 96
f 94 101 95
f 93 100 94
f 92 99 93
f 91 98 92
f 90 28 29
f 89 96 90
f 88 95 89
f 87 94 88
f 86 93 87
f 85 92 86
f 84 29 30
f 83 90 84
f 82 89 83
f 81 88 82
f 80 87 81
f 79 86 80
f 67 30 1
f 68 84 67
f 69 83 68
f 70 82 69
f 71 81 70
f 72 80 71
f 114 3 25
f 113 78 114
f 112 77 113
f 111 76 112
f 110 75 111
f 109 74 110
f 198 55 56
f 197 201 198
f 196 200 197
f 195 56 57
f 194 198 195
f 193 197 194
f 190 194 191
f 189 58 59
f 188 192 189
f 187 191 188
f 186 59 60
f 185 189 186
f 184 188 185
f 126 60 9
f 125 186 126
f 124 185 125
f 180 43 44
f 179 183 180
f 178 182 179
f 177 44 45
f 176 180 177
f 175 179 176
f 174 45 46
f 173 177 174
f 172 176 173
f 171 46 47
f 170 174 171
f 169 173 170
f 168 47 48
f 167 171 168
f 166 170 167
f 117 48 1
f 116 168 117
f 115 167 116
f 25 160 26
f 163 161 160
f 164 162 161
f 26 157 27
f 160 158 157
f 161 159 158
f 27 154 28
f 157 155 154
f 158 156 155
f 28 151 29
f 154 152 151
f 155 153 152
f 29 148 30
f 151 149 148
f 152 150 149
f 30 117 1
f 148 116 117
f 149 115 116
f 144 13 14
f 143 147 144
f 142 146 143
f 141 14 15
f 140 144 141
f 139 143 140
f 138 15 16
f 137 141 138
f 136 140 137
f 135 16 17
f 134 138 135
f 133 137 134
f 132 17 18
f 131 135 132
f 130 134 131
f 120 18 6
f 119 132 120
f 118 131 119
f 201 11 55
f 200 129 201
f 199 128 200
f 183 9 43
f 182 126 183
f 181 125 182
f 147 8 13
f 146 123 147
f 145 122 146
f 3 163 25
f 118 164 163
f 119 165 164
f 221 208 210
f 233 202 222
f 245 206 234
f 257 204 246
f 210 209 233
f 234 207 221
f 246 205 245
f 37 240 38
f 251 241 240
f 250 242 241
f 249 243 242
f 248 244 243
f 247 245 244
f 39 216 40
f 239 217 216
f 238 218 217
f 237 219 218
f 236 220 219
f 235 221 220
f 41 228 42
f 215 229 228
f 214 230 229
f 213 231 230
f 212 232 231
f 211 233 232
f 6 251 37
f 252 250 251
f 253 249 250
f 254 248 249
f 255 247 248
f 256 246 247
f 38 239 39
f 240 238 239
f 241 237 238
f 242 236 237
f 243 235 236
f 244 234 235
f 42 227 5
f 228 226 227
f 229 225 226
f 230 224 225
f 231 223 224
f 232 222 223
f 40 215 41
f 216 214 215
f 217 213 214
f 218 212 213
f 219 211 212
f 220 210 211
f 36 4 73
f 120 6 37
f 24 7 121
f 54 10 124
f 66 12 127
f 3 19 130
f 19 20 133
f 20 21 136
f 21 22 139
f 22 23 142
f 23 24 145
f 150 42 5
f 153 41 42
f 156 40 41
f 159 39 40
f 162 38 39
f 165 37 38
f 2 31 79
f 31 32 85
f 32 33 91
f 33 34 97
f 34 35 103
f 35 36 109
f 5 49 166
f 49 50 169
f 50 51 172
f 51 52 175
f 52 53 178
f 53 54 181
f 10 61 184
f 61 62 187
f 62 63 190
f 63 64 193
f 64 65 196
f 65 66 199
f 108 114 25
f 107 113 114
f 106 112 113
f 105 111 112
f 104 110 111
f 103 109 110
f 102 108 26
f 101 107 108
f 100 106 107
f 99 105 106
f 98 104 105
f 97 103 104
f 96 102 27
f 95 101 102
f 94 100 101
f 93 99 100
f 92 98 99
f 91 97 98
f 90 96 28
f 89 95 96
f 88 94 95
f 87 93 94
f 86 92 93
f 85 91 92
f 84 90 29
f 83 89 90
f 82 88 89
f 81 87 88
f 80 86 87
f 79 85 86
f 67 84 30
f 68 83 84
f 69 82 83
f 70 81 82
f 71 80 81
f 72 79 80
f 114 78 3
f 113 77 78
f 112 76 77
f 111 75 76
f 110 74 75
f 109 73 74
f 198 201 55
f 197 200 201
f 196 199 200
f 195 198 56
f 194 197 198
f 193 196 197
f 190 193 194
f 189 192 58
f 188 191 192
f 187 190 191
f 186 189 59
f 185 188 189
f 184 187 188
f 126 186 60
f 125 185 186
f 124 184 185
f 180 183 43
f 179 182 183
f 178 181 182
f 177 180 44
f 176 179 180
f 175 178 179
f 174 177 45
f 173 176 177
f 172 175 176
f 171 174 46
f 170 173 174
f 169 172 173
f 168 171 47
f 167 170 171
f 166 169 170
f 117 168 48
f 116 167 168
f 115 166 167
f 25 163 160
f 163 164 161
f 164 165 162
f 26 160 157
f 160 161 158
f 161 162 159
f 27 157 154
f 157 158 155
f 158 159 156
f 28 154 151
f 154 155 152
f 155 156 153
f 29 151 148
f 151 152 149
f 152 153 150
f 30 148 117
f 148 149 116
f 149 150 115
f 144 147 13
f 143 146 147
f 142 145 146
f 141 144 14
f 140 143 144
f 139 142 143
f 138 141 15
f 137 140 141
f 136 139 140
f 135 138 16
f 134 137 138
f 133 136 137
f 132 135 17
f 131 134 135
f 130 133 134
f 120 132 18
f 119 131 132
f 118 130 131
f 201 129 11
f 200 128 129
f 199 127 128
f 183 126 9
f 182 125 126
f 181 124 125
f 147 123 8
f 146 122 123
f 145 121 122
f 3 118 163
f 118 119 164
f 119 120 165
f 221 207 208
f 233 209 202
f 245 205 206
f 257 203 204
f 210 208 209
f 234 206 207
f 246 204 205
f 37 251 240
f 251 250 241
f 250 249 242
f 249 248 243
f 248 247 244
f 247 246 245
f 39 239 216
f 239 238 217
f 238 237 218
f 237 236 219
f 236 235 220
f 235 234 221
f 41 215 228
f 215 214 229
f 214 213 230
f 213 212 231
f 212 211 232
f 211 210 233
f 6 252 251
f 252 253 250
f 253 254 249
f 254 255 248
f 255 256 247
f 256 257 246
f 38 240 239
f 240 241 238
f 241 242 237
f 242 243 236
f 243 244 235
f 244 245 234
f 42 228 227
f 228 229 226
f 229 230 225
f 230 231 224
f 231 232 223
f 232 233 222
f 40 216 215
f 216 217 214
f 217 218 213
f 218 219 212
f 219 220 211
f 220 221 210
l 57 58
l 192 195
