# Blender v2.93.18 OBJ File: 'pillar.blend'
# www.blender.org
o Cube_Cube.001
v -1.500000 0.000000 1.500000
v -1.500000 0.706632 1.500000
v -1.500000 0.000000 -1.500000
v -1.500000 0.706632 -1.500000
v 1.500000 0.000000 1.500000
v 1.500000 0.706632 1.500000
v 1.500000 0.000000 -1.500000
v 1.500000 0.706632 -1.500000
v -1.064438 1.159681 1.064438
v -1.064438 1.159681 -1.064438
v 1.064438 1.159681 -1.064438
v 1.064438 1.159681 1.064438
v -0.874312 1.159681 0.874312
v -0.874312 1.159681 -0.874312
v 0.874312 1.159681 -0.874312
v 0.874312 1.159681 0.874312
v -0.874312 1.404881 0.874312
v -0.874312 1.404881 -0.874312
v 0.874312 1.404881 -0.874312
v 0.874312 1.404881 0.874312
v -0.727661 1.404881 0.727661
v -0.727661 1.404881 -0.727661
v 0.727661 1.404881 -0.727661
v 0.727661 1.404881 0.727661
v -0.727661 1.778410 0.727661
v -0.727661 1.778410 -0.727661
v 0.727661 1.778410 -0.727661
v 0.727661 1.778410 0.727661
v -0.531463 1.778410 0.531463
v -0.531463 1.778410 -0.531463
v 0.531463 1.778410 -0.531463
v 0.531463 1.778410 0.531463
v 0.531504 11.758375 0.531422
v -0.531422 11.758375 0.531504
v -0.531504 11.758375 -0.531422
v 0.531422 11.758375 -0.531504
v 0.852778 11.758375 0.852647
v -0.852647 11.758375 0.852778
v -0.852778 11.758375 -0.852647
v 0.852647 11.758375 -0.852778
v 0.852778 12.029950 0.852647
v -0.852647 12.029950 0.852778
v -0.852778 12.029950 -0.852647
v 0.852647 12.029950 -0.852778
v 1.126832 12.742285 1.126659
v -1.126659 12.742285 1.126832
v -1.126832 12.742285 -1.126659
v 1.126659 12.742285 -1.126832
v 1.321190 12.742285 1.320987
v -1.320987 12.742285 1.321190
v -1.321190 12.742285 -1.320987
v 1.320987 12.742285 -1.321190
v 1.321190 12.989248 1.320987
v -1.320987 12.989248 1.321190
v -1.321190 12.989248 -1.320987
v 1.320987 12.989248 -1.321190
s off
f 2 3 1
f 4 7 3
f 8 5 7
f 6 1 5
f 7 1 3
f 6 9 2
f 12 13 9
f 4 11 8
f 8 12 6
f 2 10 4
f 15 20 16
f 10 15 11
f 11 16 12
f 9 14 10
f 19 24 20
f 13 18 14
f 16 17 13
f 14 19 15
f 24 25 21
f 17 22 18
f 20 21 17
f 18 23 19
f 27 32 28
f 22 27 23
f 23 28 24
f 21 26 22
f 30 33 34
f 25 30 26
f 28 29 25
f 26 31 27
f 33 40 37
f 29 36 33
f 31 34 35
f 32 35 36
f 39 44 40
f 35 38 39
f 36 39 40
f 34 37 38
f 44 45 41
f 37 42 38
f 40 41 37
f 38 43 39
f 46 51 47
f 42 47 43
f 43 48 44
f 41 46 42
f 50 55 51
f 47 52 48
f 45 50 46
f 48 49 45
f 54 56 55
f 51 56 52
f 49 54 50
f 52 53 49
f 2 4 3
f 4 8 7
f 8 6 5
f 6 2 1
f 7 5 1
f 6 12 9
f 12 16 13
f 4 10 11
f 8 11 12
f 2 9 10
f 15 19 20
f 10 14 15
f 11 15 16
f 9 13 14
f 19 23 24
f 13 17 18
f 16 20 17
f 14 18 19
f 24 28 25
f 17 21 22
f 20 24 21
f 18 22 23
f 27 31 32
f 22 26 27
f 23 27 28
f 21 25 26
f 30 29 33
f 25 29 30
f 28 32 29
f 26 30 31
f 33 36 40
f 29 32 36
f 31 30 34
f 32 31 35
f 39 43 44
f 35 34 38
f 36 35 39
f 34 33 37
f 44 48 45
f 37 41 42
f 40 44 41
f 38 42 43
f 46 50 51
f 42 46 47
f 43 47 48
f 41 45 46
f 50 54 55
f 47 51 52
f 45 49 50
f 48 52 49
f 54 53 56
f 51 55 56
f 49 53 54
f 52 56 53
