# Blender v2.93.18 OBJ File: ''
# www.blender.org
o Cube
v 20.000000 1.000000 -20.000000
v 20.000000 -1.000000 -20.000000
v 20.000000 1.000000 20.000000
v 20.000000 -1.000000 20.000000
v -20.000000 1.000000 -20.000000
v -20.000000 -1.000000 -20.000000
v -20.000000 1.000000 20.000000
v -20.000000 -1.000000 20.000000
v -20.000000 -1.000000 22.151754
v -20.000000 1.000000 22.151754
v 20.000000 1.000000 22.151754
v 20.000000 -1.000000 22.151754
v 20.000000 23.034851 20.000000
v -20.000000 23.034851 20.000000
v 20.000000 23.034851 22.151754
v -20.000000 23.034851 22.151754
v 22.992691 1.000000 22.151754
v 22.992691 1.000000 20.000000
v 22.992691 23.034851 22.151754
v 22.992691 23.034851 20.000000
v 20.000000 23.034851 -19.979193
v 20.000000 1.000000 -19.979193
v 22.992691 23.034851 -19.979193
v 22.992691 1.000000 -19.979193
v -20.000000 -1.000000 -13.333332
v -20.000000 -1.000000 -6.666666
v -20.000000 -1.000000 0.000001
v -20.000000 -1.000000 6.666667
v -20.000000 -1.000000 13.333334
v 20.000000 1.000000 -13.333332
v 20.000000 1.000000 -6.666666
v 20.000000 1.000000 0.000001
v 20.000000 1.000000 6.666667
v 20.000000 1.000000 13.333334
v -20.000000 1.000000 13.333332
v -20.000000 1.000000 6.666666
v -20.000000 1.000000 -0.000001
v -20.000000 1.000000 -6.666667
v -20.000000 1.000000 -13.333334
v 20.000000 -1.000000 13.333332
v 20.000000 -1.000000 6.666666
v 20.000000 -1.000000 -0.000001
v 20.000000 -1.000000 -6.666667
v 20.000000 -1.000000 -13.333334
v 13.333332 -1.000000 -20.000000
v 6.666666 -1.000000 -20.000000
v -0.000001 -1.000000 -20.000000
v -6.666667 -1.000000 -20.000000
v -13.333334 -1.000000 -20.000000
v 13.333332 1.000000 20.000000
v 6.666666 1.000000 20.000000
v -0.000001 1.000000 20.000000
v -6.666667 1.000000 20.000000
v -13.333334 1.000000 20.000000
v -13.333332 -1.000000 20.000000
v -6.666666 -1.000000 20.000000
v 0.000001 -1.000000 20.000000
v 6.666667 -1.000000 20.000000
v 13.333334 -1.000000 20.000000
v -13.333332 1.000000 -20.000000
v -6.666666 1.000000 -20.000000
v 0.000001 1.000000 -20.000000
v 6.666667 1.000000 -20.000000
v 13.333334 1.000000 -20.000000
v 13.333332 1.000000 22.151754
v 6.666666 1.000000 22.151754
v -0.000001 1.000000 22.151754
v -6.666667 1.000000 22.151754
v -13.333334 1.000000 22.151754
v -13.333332 -1.000000 22.151754
v -6.666666 -1.000000 22.151754
v 0.000001 -1.000000 22.151754
v 6.666667 -1.000000 22.151754
v 13.333334 -1.000000 22.151754
v 13.333332 23.034851 20.000000
v 6.666666 23.034851 20.000000
v -0.000001 23.034851 20.000000
v -6.666667 23.034851 20.000000
v -13.333334 23.034851 20.000000
v 13.333332 23.034851 22.151754
v 6.666666 23.034851 22.151754
v -0.000001 23.034851 22.151754
v -6.666667 23.034851 22.151754
v -13.333334 23.034851 22.151754
v 13.333332 -1.000000 -13.333334
v 6.666666 -1.000000 -13.333334
v -0.000001 -1.000000 -13.333334
v -6.666667 -1.000000 -13.333334
v -13.333334 -1.000000 -13.333332
v 13.333332 -1.000000 -6.666667
v 6.666666 -1.000000 -6.666667
v -0.000001 -1.000000 -6.666666
v -6.666667 -1.000000 -6.666666
v -13.333334 -1.000000 -6.666666
v 13.333332 -1.000000 -0.000000
v 6.666666 -1.000000 -0.000000
v -0.000001 -1.000000 0.000000
v -6.666667 -1.000000 0.000000
v -13.333334 -1.000000 0.000000
v 13.333332 -1.000000 6.666666
v 6.666666 -1.000000 6.666666
v -0.000001 -1.000000 6.666666
v -6.666667 -1.000000 6.666667
v -13.333334 -1.000000 6.666667
v 13.333332 -1.000000 13.333332
v 6.666666 -1.000000 13.333332
v -0.000001 -1.000000 13.333332
v -6.666667 -1.000000 13.333332
v -13.333334 -1.000000 13.333332
v -13.333332 1.000000 -13.333334
v -6.666666 1.000000 -13.333334
v 0.000001 1.000000 -13.333334
v 6.666667 1.000000 -13.333334
v 13.333334 1.000000 -13.333332
v -13.333332 1.000000 -6.666667
v -6.666666 1.000000 -6.666667
v 0.000001 1.000000 -6.666666
v 6.666667 1.000000 -6.666666
v 13.333334 1.000000 -6.666666
v -13.333332 1.000000 -0.000000
v -6.666666 1.000000 -0.000000
v 0.000001 1.000000 0.000000
v 6.666667 1.000000 0.000000
v 13.333334 1.000000 0.000000
v -13.333332 1.000000 6.666666
v -6.666666 1.000000 6.666666
v 0.000001 1.000000 6.666666
v 6.666667 1.000000 6.666667
v 13.333334 1.000000 6.666667
v -13.333332 1.000000 13.333332
v -6.666666 1.000000 13.333332
v 0.000001 1.000000 13.333332
v 6.666667 1.000000 13.333332
v 13.333334 1.000000 13.333332
v 20.000000 1.000000 13.336802
v 20.000000 1.000000 6.673603
v 20.000000 1.000000 0.010403
v 20.000000 1.000000 -6.652796
v 20.000000 1.000000 -13.315994
v 22.992691 1.000000 -13.315994
v 22.992691 1.000000 -6.652796
v 22.992691 1.000000 0.010403
v 22.992691 1.000000 6.673603
v 22.992691 1.000000 13.336802
v 22.992691 23.034851 -13.315994
v 22.992691 23.034851 -6.652796
v 22.992691 23.034851 0.010403
v 22.992691 23.034851 6.673603
v 22.992691 23.034851 13.336802
v 20.000000 23.034851 -13.315994
v 20.000000 23.034851 -6.652796
v 20.000000 23.034851 0.010403
v 20.000000 23.034851 6.673603
v 20.000000 23.034851 13.336802
v -20.000000 6.508713 20.000000
v -20.000000 12.017426 20.000000
v -20.000000 17.526138 20.000000
v 20.000000 17.526138 20.000000
v 20.000000 12.017426 20.000000
v 20.000000 6.508713 20.000000
v 20.000000 17.526138 22.151754
v 20.000000 12.017426 22.151754
v 20.000000 6.508713 22.151754
v -20.000000 6.508713 22.151754
v -20.000000 12.017426 22.151754
v -20.000000 17.526138 22.151754
v 22.992691 17.526138 20.000000
v 22.992691 12.017426 20.000000
v 22.992691 6.508713 20.000000
v 22.992691 17.526138 22.151754
v 22.992691 12.017426 22.151754
v 22.992691 6.508713 22.151754
v 20.000000 17.526138 -19.979193
v 20.000000 12.017426 -19.979193
v 20.000000 6.508713 -19.979193
v 22.992691 17.526138 -19.979193
v 22.992691 12.017426 -19.979193
v 22.992691 6.508713 -19.979193
v -13.333334 6.508713 22.151754
v -13.333334 12.017426 22.151754
v -13.333334 17.526138 22.151754
v -6.666667 6.508713 22.151754
v -6.666667 12.017426 22.151754
v -6.666667 17.526138 22.151754
v -0.000001 6.508713 22.151754
v -0.000001 12.017426 22.151754
v -0.000001 17.526138 22.151754
v 6.666666 6.508713 22.151754
v 6.666666 12.017426 22.151754
v 6.666666 17.526138 22.151754
v 13.333332 6.508713 22.151754
v 13.333332 12.017426 22.151754
v 13.333332 17.526138 22.151754
v 13.333332 6.508713 20.000000
v 13.333332 12.017426 20.000000
v 13.333332 17.526138 20.000000
v 6.666666 6.508713 20.000000
v 6.666666 12.017426 20.000000
v 6.666666 17.526138 20.000000
v -0.000001 6.508713 20.000000
v -0.000001 12.017426 20.000000
v -0.000001 17.526138 20.000000
v -6.666667 6.508713 20.000000
v -6.666667 12.017426 20.000000
v -6.666667 17.526138 20.000000
v -13.333334 6.508713 20.000000
v -13.333334 12.017426 20.000000
v -13.333334 17.526138 20.000000
v 20.000000 17.526138 13.336802
v 20.000000 12.017426 13.336802
v 20.000000 6.508713 13.336802
v 20.000000 17.526138 6.673603
v 20.000000 12.017426 6.673603
v 20.000000 6.508713 6.673603
v 20.000000 17.526138 0.010403
v 20.000000 12.017426 0.010403
v 20.000000 6.508713 0.010403
v 20.000000 17.526138 -6.652796
v 20.000000 12.017426 -6.652796
v 20.000000 6.508713 -6.652796
v 20.000000 17.526138 -13.315994
v 20.000000 12.017426 -13.315994
v 20.000000 6.508713 -13.315994
v 22.992691 6.508713 13.336802
v 22.992691 12.017426 13.336802
v 22.992691 17.526138 13.336802
v 22.992691 6.508713 6.673603
v 22.992691 12.017426 6.673603
v 22.992691 17.526138 6.673603
v 22.992691 6.508713 0.010403
v 22.992691 12.017426 0.010403
v 22.992691 17.526138 0.010403
v 22.992691 6.508713 -6.652796
v 22.992691 12.017426 -6.652796
v 22.992691 17.526138 -6.652796
v 22.992691 6.508713 -13.315994
v 22.992691 12.017426 -13.315994
v 22.992691 17.526138 -13.315994
s off
f 35 54 130
f 157 79 208
f 39 6 25
f 40 59 105
f 34 4 40
f 64 2 45
f 69 9 70
f 3 12 4
f 8 10 7
f 4 74 59
f 14 84 79
f 3 17 11
f 166 14 157
f 161 80 193
f 167 19 170
f 11 172 163
f 139 24 140
f 15 20 13
f 21 176 173
f 140 178 236
f 145 21 150
f 150 173 221
f 1 44 2
f 30 43 44
f 31 42 43
f 32 41 42
f 33 40 41
f 2 85 45
f 44 90 85
f 43 95 90
f 42 100 95
f 41 105 100
f 7 29 8
f 35 28 29
f 36 27 28
f 37 26 27
f 38 25 26
f 5 110 60
f 39 115 110
f 38 120 115
f 37 125 120
f 36 130 125
f 129 34 33
f 128 134 129
f 127 133 128
f 126 132 127
f 125 131 126
f 124 33 32
f 124 128 129
f 123 127 128
f 121 127 122
f 120 126 121
f 119 32 31
f 118 124 119
f 117 123 118
f 116 122 117
f 116 120 121
f 114 31 30
f 114 118 119
f 112 118 113
f 112 116 117
f 111 115 116
f 64 30 1
f 64 113 114
f 62 113 63
f 61 112 62
f 60 111 61
f 104 29 28
f 103 109 104
f 102 108 103
f 101 107 102
f 100 106 101
f 99 28 27
f 99 103 104
f 98 102 103
f 96 102 97
f 95 101 96
f 94 27 26
f 93 99 94
f 92 98 93
f 91 97 92
f 91 95 96
f 89 26 25
f 89 93 94
f 87 93 88
f 87 91 92
f 86 90 91
f 49 25 6
f 49 88 89
f 47 88 48
f 46 87 47
f 45 86 46
f 181 16 166
f 184 84 181
f 187 83 184
f 190 82 187
f 193 81 190
f 75 15 13
f 76 80 75
f 77 81 76
f 78 82 77
f 79 83 78
f 55 9 8
f 56 70 55
f 57 71 56
f 58 72 57
f 59 73 58
f 11 74 12
f 65 73 74
f 66 72 73
f 67 71 72
f 68 70 71
f 5 49 6
f 60 48 49
f 61 47 48
f 62 46 47
f 63 45 46
f 109 8 29
f 108 55 109
f 107 56 108
f 106 57 107
f 105 58 106
f 196 13 158
f 199 75 196
f 202 76 199
f 205 77 202
f 208 78 205
f 134 3 34
f 133 50 134
f 132 51 133
f 131 52 132
f 130 53 131
f 13 209 158
f 154 212 209
f 153 215 212
f 152 218 215
f 151 221 218
f 20 154 13
f 149 153 154
f 148 152 153
f 147 151 152
f 146 150 151
f 18 224 169
f 144 227 224
f 143 230 227
f 142 233 230
f 141 236 233
f 3 144 18
f 135 143 144
f 136 142 143
f 137 141 142
f 138 140 141
f 235 145 146
f 234 238 235
f 233 237 234
f 232 146 147
f 231 235 232
f 230 234 231
f 229 147 148
f 228 232 229
f 227 231 228
f 226 148 149
f 225 229 226
f 224 228 225
f 167 149 20
f 168 226 167
f 169 225 168
f 220 139 138
f 219 223 220
f 218 222 219
f 217 138 137
f 216 220 217
f 215 219 216
f 214 137 136
f 213 217 214
f 212 216 213
f 211 136 135
f 210 214 211
f 209 213 210
f 160 135 3
f 159 211 160
f 158 210 159
f 54 203 53
f 206 204 203
f 207 205 204
f 53 200 52
f 203 201 200
f 204 202 201
f 52 197 51
f 200 198 197
f 201 199 198
f 51 194 50
f 197 195 194
f 198 196 195
f 50 160 3
f 194 159 160
f 195 158 159
f 65 188 66
f 191 189 188
f 192 190 189
f 66 185 67
f 188 186 185
f 189 187 186
f 67 182 68
f 185 183 182
f 186 184 183
f 68 179 69
f 182 180 179
f 183 181 180
f 69 164 10
f 179 165 164
f 180 166 165
f 223 22 139
f 222 175 223
f 221 174 222
f 238 23 145
f 237 176 238
f 236 177 237
f 175 24 22
f 174 178 175
f 173 177 174
f 161 19 15
f 162 170 161
f 163 171 162
f 18 172 17
f 169 171 172
f 168 170 171
f 11 191 65
f 163 192 191
f 162 193 192
f 10 155 7
f 164 156 155
f 165 157 156
f 7 206 54
f 155 207 206
f 156 208 207
f 35 7 54
f 157 14 79
f 39 5 6
f 40 4 59
f 34 3 4
f 64 1 2
f 69 10 9
f 3 11 12
f 8 9 10
f 4 12 74
f 14 16 84
f 3 18 17
f 166 16 14
f 161 15 80
f 167 20 19
f 11 17 172
f 139 22 24
f 15 19 20
f 21 23 176
f 140 24 178
f 145 23 21
f 150 21 173
f 1 30 44
f 30 31 43
f 31 32 42
f 32 33 41
f 33 34 40
f 2 44 85
f 44 43 90
f 43 42 95
f 42 41 100
f 41 40 105
f 7 35 29
f 35 36 28
f 36 37 27
f 37 38 26
f 38 39 25
f 5 39 110
f 39 38 115
f 38 37 120
f 37 36 125
f 36 35 130
f 129 134 34
f 128 133 134
f 127 132 133
f 126 131 132
f 125 130 131
f 124 129 33
f 124 123 128
f 123 122 127
f 121 126 127
f 120 125 126
f 119 124 32
f 118 123 124
f 117 122 123
f 116 121 122
f 116 115 120
f 114 119 31
f 114 113 118
f 112 117 118
f 112 111 116
f 111 110 115
f 64 114 30
f 64 63 113
f 62 112 113
f 61 111 112
f 60 110 111
f 104 109 29
f 103 108 109
f 102 107 108
f 101 106 107
f 100 105 106
f 99 104 28
f 99 98 103
f 98 97 102
f 96 101 102
f 95 100 101
f 94 99 27
f 93 98 99
f 92 97 98
f 91 96 97
f 91 90 95
f 89 94 26
f 89 88 93
f 87 92 93
f 87 86 91
f 86 85 90
f 49 89 25
f 49 48 88
f 47 87 88
f 46 86 87
f 45 85 86
f 181 84 16
f 184 83 84
f 187 82 83
f 190 81 82
f 193 80 81
f 75 80 15
f 76 81 80
f 77 82 81
f 78 83 82
f 79 84 83
f 55 70 9
f 56 71 70
f 57 72 71
f 58 73 72
f 59 74 73
f 11 65 74
f 65 66 73
f 66 67 72
f 67 68 71
f 68 69 70
f 5 60 49
f 60 61 48
f 61 62 47
f 62 63 46
f 63 64 45
f 109 55 8
f 108 56 55
f 107 57 56
f 106 58 57
f 105 59 58
f 196 75 13
f 199 76 75
f 202 77 76
f 205 78 77
f 208 79 78
f 134 50 3
f 133 51 50
f 132 52 51
f 131 53 52
f 130 54 53
f 13 154 209
f 154 153 212
f 153 152 215
f 152 151 218
f 151 150 221
f 20 149 154
f 149 148 153
f 148 147 152
f 147 146 151
f 146 145 150
f 18 144 224
f 144 143 227
f 143 142 230
f 142 141 233
f 141 140 236
f 3 135 144
f 135 136 143
f 136 137 142
f 137 138 141
f 138 139 140
f 235 238 145
f 234 237 238
f 233 236 237
f 232 235 146
f 231 234 235
f 230 233 234
f 229 232 147
f 228 231 232
f 227 230 231
f 226 229 148
f 225 228 229
f 224 227 228
f 167 226 149
f 168 225 226
f 169 224 225
f 220 223 139
f 219 222 223
f 218 221 222
f 217 220 138
f 216 219 220
f 215 218 219
f 214 217 137
f 213 216 217
f 212 215 216
f 211 214 136
f 210 213 214
f 209 212 213
f 160 211 135
f 159 210 211
f 158 209 210
f 54 206 203
f 206 207 204
f 207 208 205
f 53 203 200
f 203 204 201
f 204 205 202
f 52 200 197
f 200 201 198
f 201 202 199
f 51 197 194
f 197 198 195
f 198 199 196
f 50 194 160
f 194 195 159
f 195 196 158
f 65 191 188
f 191 192 189
f 192 193 190
f 66 188 185
f 188 189 186
f 189 190 187
f 67 185 182
f 185 186 183
f 186 187 184
f 68 182 179
f 182 183 180
f 183 184 181
f 69 179 164
f 179 180 165
f 180 181 166
f 223 175 22
f 222 174 175
f 221 173 174
f 238 176 23
f 237 177 176
f 236 178 177
f 175 178 24
f 174 177 178
f 173 176 177
f 161 170 19
f 162 171 170
f 163 172 171
f 18 169 172
f 169 168 171
f 168 167 170
f 11 163 191
f 163 162 192
f 162 161 193
f 10 164 155
f 164 165 156
f 165 166 157
f 7 155 206
f 155 156 207
f 156 157 208
