# Blender v2.93.18 OBJ File: ''
# www.blender.org
o Cube
v 20.000000 0.000000 -20.000000
v 20.000000 -2.000000 -20.000000
v 20.000000 0.000000 20.000000
v 20.000000 -2.000000 20.000000
v -20.000000 0.000000 -20.000000
v -20.000000 -2.000000 -20.000000
v -20.000000 0.000000 20.000000
v -20.000000 -2.000000 20.000000
v 20.000000 -2.000000 -21.754086
v -20.000000 -2.000000 -21.754086
v 20.000000 0.000000 -21.754086
v -20.000000 0.000000 -21.754086
v -20.000000 20.532547 -20.000000
v 20.000000 20.532547 -20.000000
v -20.000000 20.532547 -21.754086
v 20.000000 20.532547 -21.754086
v -21.969467 0.000000 -20.000000
v -21.969467 -2.000000 -20.000000
v -21.969467 0.000000 -21.754086
v -21.969467 -2.000000 -21.754086
v -20.000000 0.000000 19.979195
v -20.000000 -2.000000 19.979195
v -21.969467 0.000000 19.979195
v -21.969467 -2.000000 19.979195
v -21.969467 20.463160 -20.000000
v -20.000000 20.463160 -20.000000
v -21.969467 20.463160 19.979195
v -20.000000 20.463160 19.979195
s off
f 5 3 1
f 3 8 4
f 7 6 8
f 2 8 6
f 1 4 2
f 1 13 5
f 12 9 10
f 2 11 1
f 6 20 10
f 6 9 2
f 14 15 13
f 5 15 12
f 12 16 11
f 11 14 1
f 17 20 18
f 12 17 5
f 6 24 18
f 10 19 12
f 21 24 22
f 18 23 17
f 5 28 21
f 5 22 6
f 25 28 26
f 21 27 23
f 17 26 5
f 23 25 17
f 5 7 3
f 3 7 8
f 7 5 6
f 2 4 8
f 1 3 4
f 1 14 13
f 12 11 9
f 2 9 11
f 6 18 20
f 6 10 9
f 14 16 15
f 5 13 15
f 12 15 16
f 11 16 14
f 17 19 20
f 12 19 17
f 6 22 24
f 10 20 19
f 21 23 24
f 18 24 23
f 5 26 28
f 5 21 22
f 25 27 28
f 21 28 27
f 17 25 26
f 23 27 25
